# Blender 4.1.1
# www.blender.org
mtllib wood_box.mtl
o wood_box_low
v 0.267755 0.733015 0.515848
v 0.267755 1.252662 0.515848
v 0.267755 0.733015 0.041221
v 0.267755 1.252662 0.041221
v 0.742382 0.733015 0.515848
v 0.742382 1.252662 0.515848
v 0.742382 0.733015 0.041221
v 0.742382 1.252662 0.041221
v 0.237025 0.812838 0.546578
v 0.237025 0.689435 0.546578
v 0.773112 0.812838 0.546578
v 0.267755 0.812838 0.515848
v 0.237025 0.812838 0.010491
v 0.237025 0.689435 0.010491
v 0.773112 0.812838 0.010491
v 0.267755 0.812838 0.041221
v 0.267755 0.689435 0.041221
v 0.742382 0.812838 0.041221
v 0.742382 0.689435 0.041221
v 0.742382 0.812838 0.515848
v 0.742382 0.689435 0.515848
v 0.773112 0.689435 0.546578
v 0.267755 0.689435 0.515848
v 0.773112 0.689435 0.010491
v 0.267755 1.296242 0.515848
v 0.742382 1.296242 0.515848
v 0.742382 1.296242 0.041221
v 0.267755 1.296242 0.041221
v 0.237025 1.296242 0.546578
v 0.773112 1.296242 0.546578
v 0.773112 1.296242 0.010491
v 0.237025 1.296242 0.010491
v 0.267755 1.172838 0.515848
v 0.742382 1.172838 0.515848
v 0.742382 1.172838 0.041221
v 0.267755 1.172838 0.041221
v 0.237025 1.172838 0.546578
v 0.773112 1.172838 0.546578
v 0.773112 1.172838 0.010491
v 0.237025 1.172838 0.010491
vn -1.0000 -0.0000 -0.0000
vn -0.0000 -0.0000 -1.0000
vn -0.0000 -0.0000 1.0000
vn 1.0000 -0.0000 -0.0000
vn -0.0000 1.0000 -0.0000
vn -0.0000 -1.0000 -0.0000
vt 1.481055 0.581776
vt 1.291302 0.388315
vt 1.481055 0.388315
vt 1.291302 0.778385
vt 1.484763 0.588632
vt 1.484763 0.778385
vt 1.484763 0.381459
vt 1.291302 0.191706
vt 1.484763 0.191706
vt 1.291302 0.001953
vt 1.484763 0.001953
vt 1.491619 0.001953
vt 1.681372 0.191706
vt 1.491619 0.191706
vt 1.487911 0.388315
vt 1.677664 0.578068
vt 1.487911 0.578068
vt 1.833789 0.658637
vt 1.879732 0.444313
vt 1.879732 0.658637
vt 1.001953 0.702723
vt 1.216278 0.748666
vt 1.001953 0.748666
vt 1.858530 0.219007
vt 1.870816 0.421047
vt 1.858530 0.433333
vt 1.969941 0.446320
vt 1.982227 0.648358
vt 1.969941 0.660644
vt 1.805732 0.001953
vt 1.851675 0.216277
vt 1.805732 0.216277
vt 1.428625 0.985761
vt 1.226588 0.998047
vt 1.214302 0.985761
vt 1.914558 0.388315
vt 1.960500 0.198561
vt 1.960500 0.388314
vt 1.198562 0.959764
vt 1.388315 0.913822
vt 1.388315 0.959764
vt 1.395171 0.959764
vt 1.584924 0.913822
vt 1.584924 0.959764
vt 1.806720 0.958612
vt 1.604681 0.970897
vt 1.592395 0.958612
vt 1.749000 0.932615
vt 1.938753 0.886672
vt 1.938753 0.932615
vt 1.878478 0.215110
vt 1.890763 0.417149
vt 1.878478 0.429435
vt 1.216894 0.966620
vt 1.014854 0.978905
vt 1.002569 0.966620
vt 1.582915 0.966620
vt 1.380877 0.978906
vt 1.393163 0.966620
vt 1.625888 0.862889
vt 1.840212 0.816946
vt 1.840212 0.862889
vt 1.204607 0.985761
vt 1.002569 0.998047
vt 1.014854 0.985761
vt 1.982227 0.872377
vt 1.969941 0.670339
vt 1.982227 0.658053
vt 1.780991 0.756238
vt 1.826934 0.541913
vt 1.826934 0.756238
vt 1.960500 0.001953
vt 1.914558 0.191706
vt 1.914558 0.001953
vt 1.604681 0.939470
vt 1.806718 0.951756
vt 1.592395 0.951756
vt 1.001953 0.913822
vt 1.191706 0.959764
vt 1.001953 0.959764
vt 1.960500 0.591778
vt 1.914558 0.781531
vt 1.914558 0.591778
vt 1.915084 0.584923
vt 1.961027 0.395170
vt 1.961027 0.584923
vt 1.204608 0.755521
vt 1.002569 0.767807
vt 1.014854 0.755521
vt 1.967356 0.216893
vt 1.979642 0.014854
vt 1.979642 0.204607
vt 1.893010 0.665493
vt 1.847067 0.879817
vt 1.847067 0.665493
vt 1.809031 0.810091
vt 1.594706 0.764148
vt 1.809031 0.764148
vt 1.858530 0.204608
vt 1.870816 0.002569
vt 1.870816 0.216894
vt 1.889957 0.216894
vt 1.877671 0.014854
vt 1.889957 0.002569
vt 1.969941 0.438233
vt 1.982227 0.236195
vt 1.982227 0.425947
vt 1.615384 0.990039
vt 1.817420 0.977753
vt 1.805134 0.990039
vt 1.851674 0.223133
vt 1.805732 0.437457
vt 1.805732 0.223133
vt 1.291302 0.581776
vt 1.291302 0.588632
vt 1.291302 0.381459
vt 1.681372 0.001953
vt 1.677664 0.388315
vt 1.833789 0.444313
vt 1.216278 0.702723
vt 1.870816 0.231293
vt 1.982227 0.458606
vt 1.851675 0.001953
vt 1.416340 0.998047
vt 1.914558 0.198561
vt 1.198562 0.913822
vt 1.395171 0.913822
vt 1.794434 0.970897
vt 1.749000 0.886672
vt 1.890763 0.227396
vt 1.204608 0.978905
vt 1.595200 0.978906
vt 1.625888 0.816946
vt 1.216892 0.998047
vt 1.969941 0.860092
vt 1.780991 0.541913
vt 1.960500 0.191706
vt 1.794432 0.939470
vt 1.191707 0.913822
vt 1.960500 0.781531
vt 1.915084 0.395170
vt 1.216894 0.767807
vt 1.967356 0.002569
vt 1.893010 0.879817
vt 1.594707 0.810091
vt 1.858530 0.014854
vt 1.877671 0.204608
vt 1.969941 0.223909
vt 1.603098 0.977753
vt 1.851674 0.437457
s 1
usemtl cart
f 2/1/1 3/2/1 1/3/1
f 7/4/2 4/5/2 8/6/2
f 2/7/3 5/8/3 6/9/3
f 6/9/4 7/10/4 8/11/4
f 8/12/5 2/13/5 6/14/5
f 7/15/6 1/16/6 3/17/6
f 14/18/1 9/19/1 13/20/1
f 10/21/3 11/22/3 9/23/3
f 11/24/5 12/25/5 9/26/5
f 9/27/5 16/28/5 13/29/5
f 15/30/2 14/31/2 13/32/2
f 13/33/5 18/34/5 15/35/5
f 23/36/4 16/37/4 12/38/4
f 16/39/3 19/40/3 18/41/3
f 21/42/1 18/43/1 19/44/1
f 15/45/5 20/46/5 11/47/5
f 20/48/2 23/49/2 12/50/2
f 22/51/6 19/52/6 24/53/6
f 10/54/6 21/55/6 22/56/6
f 23/57/6 14/58/6 17/59/6
f 11/60/4 24/61/4 15/62/4
f 17/63/6 24/64/6 19/65/6
f 30/66/5 25/67/5 29/68/5
f 39/69/2 32/70/2 31/71/2
f 33/72/4 28/73/4 25/74/4
f 25/75/5 32/76/5 29/77/5
f 36/78/3 27/79/3 28/80/3
f 35/81/1 26/82/1 27/83/1
f 34/84/2 25/85/2 26/86/2
f 27/87/5 32/88/5 28/89/5
f 30/90/5 27/91/5 26/92/5
f 30/93/3 37/94/3 38/95/3
f 38/96/4 31/97/4 30/98/4
f 33/99/6 38/100/6 37/101/6
f 40/102/6 33/103/6 37/104/6
f 40/105/6 35/106/6 36/107/6
f 35/108/6 38/109/6 34/110/6
f 29/111/1 40/112/1 37/113/1
f 2/1/1 4/114/1 3/2/1
f 7/4/2 3/115/2 4/5/2
f 2/7/3 1/116/3 5/8/3
f 6/9/4 5/8/4 7/10/4
f 8/12/5 4/117/5 2/13/5
f 7/15/6 5/118/6 1/16/6
f 14/18/1 10/119/1 9/19/1
f 10/21/3 22/120/3 11/22/3
f 11/24/5 20/121/5 12/25/5
f 9/27/5 12/122/5 16/28/5
f 15/30/2 24/123/2 14/31/2
f 13/33/5 16/124/5 18/34/5
f 23/36/4 17/125/4 16/37/4
f 16/39/3 17/126/3 19/40/3
f 21/42/1 20/127/1 18/43/1
f 15/45/5 18/128/5 20/46/5
f 20/48/2 21/129/2 23/49/2
f 22/51/6 21/130/6 19/52/6
f 10/54/6 23/131/6 21/55/6
f 23/57/6 10/132/6 14/58/6
f 11/60/4 22/133/4 24/61/4
f 17/63/6 14/134/6 24/64/6
f 30/66/5 26/135/5 25/67/5
f 39/69/2 40/136/2 32/70/2
f 33/72/4 36/137/4 28/73/4
f 25/75/5 28/138/5 32/76/5
f 36/78/3 35/139/3 27/79/3
f 35/81/1 34/140/1 26/82/1
f 34/84/2 33/141/2 25/85/2
f 27/87/5 31/142/5 32/88/5
f 30/90/5 31/143/5 27/91/5
f 30/93/3 29/144/3 37/94/3
f 38/96/4 39/145/4 31/97/4
f 33/99/6 34/146/6 38/100/6
f 40/102/6 36/147/6 33/103/6
f 40/105/6 39/148/6 35/106/6
f 35/108/6 39/149/6 38/109/6
f 29/111/1 32/150/1 40/112/1
