# Blender 4.1.1
# www.blender.org
mtllib wood_barrel.mtl
o metal_barrel_low
v -0.246973 1.206695 -0.006377
v -0.246973 1.100953 -0.014742
v -0.246973 0.850113 -0.014742
v -0.246973 0.744371 -0.006377
v -0.192509 0.744371 -0.001013
v -0.190877 0.850113 -0.009217
v -0.190877 1.100953 -0.009217
v -0.192509 1.206695 -0.001013
v -0.140137 0.744371 0.014874
v -0.136936 0.850113 0.007146
v -0.136936 1.100953 0.007146
v -0.140137 1.206695 0.014874
v -0.091871 0.744371 0.040673
v -0.087224 0.850113 0.033717
v -0.087224 1.100953 0.033717
v -0.091871 1.206695 0.040673
v -0.049566 0.744371 0.075392
v -0.043651 0.850113 0.069477
v -0.043651 1.100953 0.069477
v -0.049566 1.206695 0.075392
v -0.014847 0.744371 0.117697
v -0.007891 0.850113 0.113050
v -0.007891 1.100953 0.113050
v -0.014847 1.206695 0.117697
v 0.010952 0.744371 0.165963
v 0.018680 0.850113 0.162762
v 0.018680 1.100953 0.162762
v 0.010952 1.206695 0.165963
v 0.026839 0.744371 0.218335
v 0.035043 0.850113 0.216703
v 0.035043 1.100953 0.216703
v 0.026839 1.206695 0.218335
v 0.032203 0.744371 0.272799
v 0.040568 0.850113 0.272799
v 0.040568 1.100953 0.272799
v 0.032203 1.206695 0.272799
v 0.026839 0.744371 0.327264
v 0.035043 0.850113 0.328896
v 0.035043 1.100953 0.328896
v 0.026839 1.206695 0.327264
v 0.010952 0.744371 0.379635
v 0.018680 0.850113 0.382837
v 0.018680 1.100953 0.382837
v 0.010952 1.206695 0.379635
v -0.014847 0.744371 0.427901
v -0.007891 0.850113 0.432549
v -0.007891 1.100953 0.432549
v -0.014847 1.206695 0.427901
v -0.049566 0.744371 0.470207
v -0.043651 0.850113 0.476122
v -0.043651 1.100953 0.476122
v -0.049566 1.206695 0.470207
v -0.091871 0.744371 0.504926
v -0.087224 0.850113 0.511881
v -0.087224 1.100953 0.511881
v -0.091871 1.206695 0.504926
v -0.140137 0.744371 0.530724
v -0.136936 0.850113 0.538453
v -0.136936 1.100953 0.538453
v -0.140137 1.206695 0.530724
v -0.192509 0.744371 0.546611
v -0.190877 0.850113 0.554816
v -0.190877 1.100953 0.554816
v -0.192509 1.206695 0.546611
v -0.246973 0.744371 0.551975
v -0.246973 0.850113 0.560341
v -0.246973 1.100953 0.560341
v -0.246973 1.206695 0.551975
v -0.301438 0.744371 0.546611
v -0.303070 0.850113 0.554816
v -0.303070 1.100953 0.554816
v -0.301438 1.206695 0.546611
v -0.353809 0.744371 0.530724
v -0.357011 0.850113 0.538453
v -0.357011 1.100953 0.538453
v -0.353809 1.206695 0.530724
v -0.402075 0.744371 0.504926
v -0.406723 0.850113 0.511881
v -0.406723 1.100953 0.511881
v -0.402075 1.206695 0.504926
v -0.444381 0.744371 0.470207
v -0.450296 0.850113 0.476122
v -0.450296 1.100953 0.476122
v -0.444381 1.206695 0.470207
v -0.479100 0.744371 0.427901
v -0.486055 0.850113 0.432549
v -0.486055 1.100953 0.432549
v -0.479100 1.206695 0.427901
v -0.504898 0.744371 0.379635
v -0.512627 0.850113 0.382837
v -0.512627 1.100953 0.382837
v -0.504898 1.206695 0.379635
v -0.520785 0.744371 0.327264
v -0.528990 0.850113 0.328896
v -0.528990 1.100953 0.328896
v -0.520785 1.206695 0.327264
v -0.526149 0.744371 0.272799
v -0.534515 0.850113 0.272799
v -0.534515 1.100953 0.272799
v -0.526149 1.206695 0.272799
v -0.520785 0.744371 0.218335
v -0.528990 0.850113 0.216703
v -0.528990 1.100953 0.216703
v -0.520785 1.206695 0.218335
v -0.504898 0.744371 0.165963
v -0.512627 0.850113 0.162762
v -0.512627 1.100953 0.162762
v -0.504898 1.206695 0.165963
v -0.479100 0.744371 0.117697
v -0.486055 0.850113 0.113050
v -0.486055 1.100953 0.113050
v -0.479100 1.206695 0.117697
v -0.444381 0.744371 0.075392
v -0.450296 0.850113 0.069477
v -0.450296 1.100953 0.069477
v -0.444381 1.206695 0.075392
v -0.402075 0.744371 0.040673
v -0.406723 0.850113 0.033717
v -0.406723 1.100953 0.033717
v -0.402075 1.206695 0.040673
v -0.353809 0.744371 0.014874
v -0.357011 0.850113 0.007146
v -0.357011 1.100953 0.007146
v -0.353809 1.206695 0.014874
v -0.301438 0.744371 -0.001013
v -0.303070 0.850113 -0.009217
v -0.303070 1.100953 -0.009217
v -0.301438 1.206695 -0.001013
v -0.246973 1.204797 0.012035
v -0.246973 1.099055 0.003669
v -0.246973 0.852011 0.003669
v -0.246973 0.746269 0.012035
v -0.196101 0.746269 0.017045
v -0.194469 0.852011 0.008840
v -0.194469 1.099055 0.008840
v -0.196101 1.204797 0.017045
v -0.147183 0.746269 0.031884
v -0.143982 0.852011 0.024156
v -0.143982 1.099055 0.024156
v -0.147183 1.204797 0.031884
v -0.102100 0.746269 0.055981
v -0.097453 0.852011 0.049026
v -0.097453 1.099055 0.049026
v -0.102100 1.204797 0.055981
v -0.062585 0.746269 0.088411
v -0.056670 0.852011 0.082496
v -0.056670 1.099055 0.082496
v -0.062585 1.204797 0.088411
v -0.030155 0.746269 0.127926
v -0.023200 0.852011 0.123279
v -0.023200 1.099055 0.123279
v -0.030155 1.204797 0.127926
v -0.006058 0.746269 0.173009
v 0.001670 0.852011 0.169808
v 0.001670 1.099055 0.169808
v -0.006058 1.204797 0.173009
v 0.008781 0.746269 0.221927
v 0.016986 0.852011 0.220295
v 0.016986 1.099055 0.220295
v 0.008781 1.204797 0.221927
v 0.013791 0.746269 0.272799
v 0.022157 0.852011 0.272799
v 0.022157 1.099055 0.272799
v 0.013791 1.204797 0.272799
v 0.008781 0.746269 0.323672
v 0.016986 0.852011 0.325304
v 0.016986 1.099055 0.325304
v 0.008781 1.204797 0.323672
v -0.006058 0.746269 0.372590
v 0.001670 0.852011 0.375791
v 0.001670 1.099055 0.375791
v -0.006058 1.204797 0.372590
v -0.030155 0.746269 0.417672
v -0.023200 0.852011 0.422320
v -0.023200 1.099055 0.422320
v -0.030155 1.204797 0.417672
v -0.062585 0.746269 0.457188
v -0.056670 0.852011 0.463103
v -0.056670 1.099055 0.463103
v -0.062585 1.204797 0.457188
v -0.102100 0.746269 0.489617
v -0.097453 0.852011 0.496573
v -0.097453 1.099055 0.496573
v -0.102100 1.204797 0.489617
v -0.147183 0.746269 0.513714
v -0.143982 0.852011 0.521443
v -0.143982 1.099055 0.521443
v -0.147183 1.204797 0.513714
v -0.196101 0.746269 0.528553
v -0.194469 0.852011 0.536758
v -0.194469 1.099055 0.536758
v -0.196101 1.204797 0.528553
v -0.246973 0.746269 0.533564
v -0.246973 0.852011 0.541929
v -0.246973 1.099055 0.541929
v -0.246973 1.204797 0.533564
v -0.297846 0.746269 0.528553
v -0.299478 0.852011 0.536758
v -0.299478 1.099055 0.536758
v -0.297846 1.204797 0.528553
v -0.346764 0.746269 0.513714
v -0.349965 0.852011 0.521443
v -0.349965 1.099055 0.521443
v -0.346764 1.204797 0.513714
v -0.391846 0.746269 0.489617
v -0.396494 0.852011 0.496573
v -0.396494 1.099055 0.496573
v -0.391846 1.204797 0.489617
v -0.431362 0.746269 0.457188
v -0.437277 0.852011 0.463103
v -0.437277 1.099055 0.463103
v -0.431362 1.204797 0.457188
v -0.463791 0.746269 0.417672
v -0.470747 0.852011 0.422320
v -0.470747 1.099055 0.422320
v -0.463791 1.204797 0.417672
v -0.487888 0.746269 0.372590
v -0.495617 0.852011 0.375791
v -0.495617 1.099055 0.375791
v -0.487888 1.204797 0.372590
v -0.502727 0.746269 0.323672
v -0.510932 0.852011 0.325304
v -0.510932 1.099055 0.325304
v -0.502727 1.204797 0.323672
v -0.507738 0.746269 0.272799
v -0.516103 0.852011 0.272799
v -0.516103 1.099055 0.272799
v -0.507738 1.204797 0.272799
v -0.502727 0.746269 0.221927
v -0.510932 0.852011 0.220295
v -0.510932 1.099055 0.220295
v -0.502727 1.204797 0.221927
v -0.487888 0.746269 0.173009
v -0.495617 0.852011 0.169808
v -0.495617 1.099055 0.169808
v -0.487888 1.204797 0.173009
v -0.463791 0.746269 0.127926
v -0.470747 0.852011 0.123279
v -0.470747 1.099055 0.123279
v -0.463791 1.204797 0.127926
v -0.431362 0.746269 0.088411
v -0.437277 0.852011 0.082496
v -0.437277 1.099055 0.082496
v -0.431362 1.204797 0.088411
v -0.391846 0.746269 0.055981
v -0.396494 0.852011 0.049026
v -0.396494 1.099055 0.049026
v -0.391846 1.204797 0.055981
v -0.346764 0.746269 0.031884
v -0.349965 0.852011 0.024156
v -0.349965 1.099055 0.024156
v -0.346764 1.204797 0.031884
v -0.297846 0.746269 0.017045
v -0.299478 0.852011 0.008840
v -0.299478 1.099055 0.008840
v -0.297846 1.204797 0.017045
v -0.246973 0.600744 0.072756
v -0.207947 0.600744 0.076600
v -0.170420 0.600744 0.087984
v -0.135835 0.600744 0.106469
v -0.105521 0.600744 0.131347
v -0.080643 0.600744 0.161661
v -0.080643 1.350322 0.161661
v -0.062158 0.600744 0.196246
v -0.050774 0.600744 0.233773
v -0.050774 1.350322 0.233773
v -0.046930 0.600744 0.272799
v -0.046930 1.350322 0.272799
v -0.050774 0.600744 0.311826
v -0.062158 0.600744 0.349352
v -0.080643 0.600744 0.383937
v -0.080643 1.350322 0.383937
v -0.105521 0.600744 0.414251
v -0.135835 0.600744 0.439129
v -0.135835 1.350322 0.439129
v -0.170420 0.600744 0.457615
v -0.207947 0.600744 0.468999
v -0.246973 0.600744 0.472842
v -0.286000 0.600744 0.468999
v -0.286000 1.350322 0.468999
v -0.323526 0.600744 0.457615
v -0.358111 0.600744 0.439129
v -0.388425 0.600744 0.414251
v -0.413303 0.600744 0.383937
v -0.431789 0.600744 0.349352
v -0.443173 0.600744 0.311826
v -0.447016 0.600744 0.272799
v -0.443173 0.600744 0.233773
v -0.431789 0.600744 0.196246
v -0.431789 1.350322 0.196246
v -0.413303 0.600744 0.161661
v -0.413303 1.350322 0.161661
v -0.388425 0.600744 0.131347
v -0.358111 0.600744 0.106469
v -0.358111 1.350322 0.106469
v -0.323526 0.600744 0.087984
v -0.286000 0.600744 0.076600
v -0.246973 1.250524 0.017040
v -0.246973 0.700542 0.017040
v -0.246973 1.152088 0.006265
v -0.246973 1.036370 0.000601
v -0.246973 0.914696 0.000601
v -0.246973 0.798978 0.006265
v -0.197077 0.700542 0.021954
v -0.197077 1.250524 0.021954
v -0.194975 0.798978 0.011387
v -0.193870 0.914696 0.005831
v -0.193870 1.036370 0.005831
v -0.194975 1.152088 0.011387
v -0.149098 0.700542 0.036508
v -0.149098 1.250524 0.036508
v -0.144975 0.798978 0.026554
v -0.142807 0.914696 0.021321
v -0.142807 1.036370 0.021321
v -0.144975 1.152088 0.026554
v -0.104881 0.700542 0.060143
v -0.104881 1.250524 0.060143
v -0.098895 0.798978 0.051184
v -0.095748 0.914696 0.046474
v -0.095748 1.036370 0.046474
v -0.098895 1.152088 0.051184
v -0.066124 0.700542 0.091950
v -0.066124 1.250524 0.091950
v -0.058505 0.798978 0.084331
v -0.054500 0.914696 0.080326
v -0.054500 1.036370 0.080326
v -0.058505 1.152088 0.084331
v -0.034317 0.700542 0.130707
v -0.034317 1.250524 0.130707
v -0.025358 0.798978 0.124721
v -0.020648 0.914696 0.121574
v -0.020648 1.036370 0.121574
v -0.025358 1.152088 0.124721
v -0.010682 0.700542 0.174924
v -0.010682 1.250524 0.174924
v -0.000728 0.798978 0.170801
v 0.004505 0.914696 0.168633
v 0.004505 1.036370 0.168633
v -0.000728 1.152088 0.170801
v 0.003872 0.700542 0.222903
v 0.003872 1.250524 0.222903
v 0.014439 0.798978 0.220801
v 0.019995 0.914696 0.219696
v 0.019995 1.036370 0.219696
v 0.014439 1.152088 0.220801
v 0.008786 0.700542 0.272799
v 0.008786 1.250524 0.272799
v 0.019561 0.798978 0.272799
v 0.025225 0.914696 0.272799
v 0.025225 1.036370 0.272799
v 0.019561 1.152088 0.272799
v 0.003872 0.700542 0.322695
v 0.003872 1.250524 0.322695
v 0.014439 0.798978 0.324797
v 0.019995 0.914696 0.325903
v 0.019995 1.036370 0.325903
v 0.014439 1.152088 0.324797
v -0.010682 0.700542 0.370674
v -0.010682 1.250524 0.370674
v -0.000728 0.798978 0.374797
v 0.004505 0.914696 0.376965
v 0.004505 1.036370 0.376965
v -0.000728 1.152088 0.374797
v -0.034317 0.700542 0.414892
v -0.034317 1.250524 0.414892
v -0.025358 0.798978 0.420878
v -0.020648 0.914696 0.424025
v -0.020648 1.036370 0.424025
v -0.025358 1.152088 0.420878
v -0.066124 0.700542 0.453649
v -0.066124 1.250524 0.453649
v -0.058505 0.798978 0.461267
v -0.054500 0.914696 0.465273
v -0.054500 1.036370 0.465273
v -0.058505 1.152088 0.461267
v -0.104881 0.700542 0.485455
v -0.104881 1.250524 0.485455
v -0.098895 0.798978 0.494414
v -0.095748 0.914696 0.499124
v -0.095748 1.036370 0.499124
v -0.098895 1.152088 0.494414
v -0.149098 0.700542 0.509090
v -0.149098 1.250524 0.509090
v -0.144975 0.798978 0.519045
v -0.142807 0.914696 0.524278
v -0.142807 1.036370 0.524278
v -0.144975 1.152088 0.519045
v -0.197077 0.700542 0.523644
v -0.197077 1.250524 0.523644
v -0.194975 0.798978 0.534212
v -0.193870 0.914696 0.539768
v -0.193870 1.036370 0.539768
v -0.194975 1.152088 0.534212
v -0.246973 0.700542 0.528559
v -0.246973 1.250524 0.528559
v -0.246973 0.798978 0.539333
v -0.246973 0.914696 0.544998
v -0.246973 1.036370 0.544998
v -0.246973 1.152088 0.539333
v -0.296869 0.700542 0.523644
v -0.296869 1.250524 0.523644
v -0.298971 0.798978 0.534212
v -0.300077 0.914696 0.539768
v -0.300077 1.036370 0.539768
v -0.298971 1.152088 0.534212
v -0.344848 0.700542 0.509090
v -0.344848 1.250524 0.509090
v -0.348971 0.798978 0.519045
v -0.351139 0.914696 0.524278
v -0.351139 1.036370 0.524278
v -0.348971 1.152088 0.519045
v -0.389066 0.700542 0.485455
v -0.389066 1.250524 0.485455
v -0.395052 0.798978 0.494414
v -0.398199 0.914696 0.499124
v -0.398199 1.036370 0.499124
v -0.395052 1.152088 0.494414
v -0.427823 0.700542 0.453649
v -0.427823 1.250524 0.453649
v -0.435441 0.798978 0.461267
v -0.439447 0.914696 0.465273
v -0.439447 1.036370 0.465273
v -0.435441 1.152088 0.461267
v -0.459629 0.700542 0.414892
v -0.459629 1.250524 0.414892
v -0.468588 0.798978 0.420878
v -0.473298 0.914696 0.424025
v -0.473298 1.036370 0.424025
v -0.468588 1.152088 0.420878
v -0.483264 0.700542 0.370674
v -0.483264 1.250524 0.370674
v -0.493219 0.798978 0.374797
v -0.498452 0.914696 0.376965
v -0.498452 1.036370 0.376965
v -0.493219 1.152088 0.374797
v -0.497818 0.700542 0.322695
v -0.497818 1.250524 0.322695
v -0.508386 0.798978 0.324797
v -0.513942 0.914696 0.325903
v -0.513942 1.036370 0.325903
v -0.508386 1.152088 0.324797
v -0.502733 0.700542 0.272799
v -0.502733 1.250524 0.272799
v -0.513507 0.798978 0.272799
v -0.519172 0.914696 0.272799
v -0.519172 1.036370 0.272799
v -0.513507 1.152088 0.272799
v -0.497818 0.700542 0.222903
v -0.497818 1.250524 0.222903
v -0.508386 0.798978 0.220801
v -0.513942 0.914696 0.219696
v -0.513942 1.036370 0.219696
v -0.508386 1.152088 0.220801
v -0.483264 0.700542 0.174924
v -0.483264 1.250524 0.174924
v -0.493219 0.798978 0.170801
v -0.498452 0.914696 0.168633
v -0.498452 1.036370 0.168633
v -0.493219 1.152088 0.170801
v -0.459629 0.700542 0.130707
v -0.459629 1.250524 0.130707
v -0.468588 0.798978 0.124721
v -0.473298 0.914696 0.121574
v -0.473298 1.036370 0.121574
v -0.468588 1.152088 0.124721
v -0.427823 0.700542 0.091950
v -0.427823 1.250524 0.091950
v -0.435441 0.798978 0.084331
v -0.439447 0.914696 0.080326
v -0.439447 1.036370 0.080326
v -0.435441 1.152088 0.084331
v -0.389066 0.700542 0.060143
v -0.389066 1.250524 0.060143
v -0.395052 0.798978 0.051184
v -0.398199 0.914696 0.046474
v -0.398199 1.036370 0.046474
v -0.395052 1.152088 0.051184
v -0.344848 0.700542 0.036508
v -0.344848 1.250524 0.036508
v -0.348971 0.798978 0.026554
v -0.351139 0.914696 0.021321
v -0.351139 1.036370 0.021321
v -0.348971 1.152088 0.026554
v -0.296869 0.700542 0.021954
v -0.296869 1.250524 0.021954
v -0.298971 0.798978 0.011387
v -0.300077 0.914696 0.005831
v -0.300077 1.036370 0.005831
v -0.298971 1.152088 0.011387
v -0.246973 0.600744 0.032075
v -0.200010 0.600744 0.036700
v -0.154852 0.600744 0.050399
v -0.154852 1.350322 0.050399
v -0.113234 0.600744 0.072644
v -0.076756 0.600744 0.102582
v -0.076756 1.350322 0.102582
v -0.046818 0.600744 0.139060
v -0.024573 0.600744 0.180678
v -0.010874 0.600744 0.225836
v -0.006249 0.600744 0.272799
v -0.006249 1.350322 0.272799
v -0.010874 0.600744 0.319762
v -0.024573 0.600744 0.364920
v -0.046818 0.600744 0.406538
v -0.046818 1.350322 0.406538
v -0.076756 0.600744 0.443017
v -0.113234 0.600744 0.472954
v -0.154852 0.600744 0.495199
v -0.200010 0.600744 0.508898
v -0.200010 1.350322 0.508898
v -0.246973 0.600744 0.513523
v -0.293936 0.600744 0.508898
v -0.293936 1.350322 0.508898
v -0.339094 0.600744 0.495199
v -0.339094 1.350322 0.495199
v -0.380713 0.600744 0.472954
v -0.417191 0.600744 0.443017
v -0.447128 0.600744 0.406538
v -0.469373 0.600744 0.364920
v -0.483072 0.600744 0.319762
v -0.487697 0.600744 0.272799
v -0.487697 1.350322 0.272799
v -0.483072 0.600744 0.225836
v -0.483072 1.350322 0.225836
v -0.469373 0.600744 0.180678
v -0.447128 0.600744 0.139060
v -0.447128 1.350322 0.139060
v -0.417191 0.600744 0.102582
v -0.380713 0.600744 0.072644
v -0.339094 0.600744 0.050399
v -0.293936 0.600744 0.036700
v -0.293936 1.350322 0.036700
v -0.246973 0.648798 0.272799
v -0.246973 1.302269 0.272799
v -0.207947 1.302269 0.076600
v -0.246973 1.302269 0.072756
v -0.170420 1.302269 0.087984
v -0.135835 1.302269 0.106469
v -0.105521 1.302269 0.131347
v -0.080643 1.302269 0.161661
v -0.062158 1.302269 0.196246
v -0.050774 1.302269 0.233773
v -0.046930 1.302269 0.272799
v -0.050774 1.302269 0.311826
v -0.062158 1.302269 0.349352
v -0.080643 1.302269 0.383937
v -0.105521 1.302269 0.414251
v -0.135835 1.302269 0.439129
v -0.170420 1.302269 0.457615
v -0.207947 1.302269 0.468999
v -0.246973 1.302269 0.472842
v -0.286000 1.302269 0.468999
v -0.323526 1.302269 0.457615
v -0.358111 1.302269 0.439129
v -0.388425 1.302269 0.414251
v -0.413303 1.302269 0.383937
v -0.431789 1.302269 0.349352
v -0.443173 1.302269 0.311826
v -0.447016 1.302269 0.272799
v -0.443173 1.302269 0.233773
v -0.431789 1.302269 0.196246
v -0.413303 1.302269 0.161661
v -0.388425 1.302269 0.131347
v -0.358111 1.302269 0.106469
v -0.323526 1.302269 0.087984
v -0.286000 1.302269 0.076600
v -0.246973 0.648797 0.072756
v -0.207947 0.648797 0.076600
v -0.170420 0.648797 0.087984
v -0.135835 0.648797 0.106469
v -0.105521 0.648797 0.131347
v -0.080643 0.648797 0.161661
v -0.062158 0.648797 0.196246
v -0.050774 0.648797 0.233773
v -0.046930 0.648797 0.272799
v -0.050774 0.648797 0.311826
v -0.062158 0.648797 0.349352
v -0.080643 0.648797 0.383937
v -0.105521 0.648797 0.414251
v -0.135835 0.648797 0.439129
v -0.170420 0.648797 0.457615
v -0.207947 0.648797 0.468999
v -0.246973 0.648797 0.472842
v -0.286000 0.648797 0.468999
v -0.323526 0.648797 0.457615
v -0.358111 0.648797 0.439129
v -0.388425 0.648797 0.414251
v -0.413303 0.648797 0.383937
v -0.431789 0.648797 0.349352
v -0.443173 0.648797 0.311826
v -0.447016 0.648797 0.272799
v -0.443173 0.648797 0.233773
v -0.431789 0.648797 0.196246
v -0.413303 0.648797 0.161661
v -0.388425 0.648797 0.131347
v -0.358111 0.648797 0.106469
v -0.323526 0.648797 0.087984
v -0.286000 0.648797 0.076600
v -0.246973 1.350322 0.072756
v -0.207947 1.350322 0.076600
v -0.170420 1.350322 0.087984
v -0.135835 1.350322 0.106469
v -0.105521 1.350322 0.131347
v -0.062158 1.350322 0.196246
v -0.050774 1.350322 0.311826
v -0.062158 1.350322 0.349352
v -0.105521 1.350322 0.414251
v -0.170420 1.350322 0.457615
v -0.207947 1.350322 0.468999
v -0.246973 1.350322 0.472842
v -0.323526 1.350322 0.457615
v -0.358111 1.350322 0.439129
v -0.388425 1.350322 0.414251
v -0.413303 1.350322 0.383937
v -0.431789 1.350322 0.349352
v -0.443173 1.350322 0.311826
v -0.447016 1.350322 0.272799
v -0.443173 1.350322 0.233773
v -0.388425 1.350322 0.131347
v -0.323526 1.350322 0.087984
v -0.286000 1.350322 0.076600
v -0.246973 1.350322 0.032075
v -0.200010 1.350322 0.036700
v -0.113234 1.350322 0.072644
v -0.046818 1.350322 0.139060
v -0.024573 1.350322 0.180678
v -0.010874 1.350322 0.225836
v -0.010874 1.350322 0.319762
v -0.024573 1.350322 0.364920
v -0.076756 1.350322 0.443017
v -0.113234 1.350322 0.472954
v -0.154852 1.350322 0.495199
v -0.246973 1.350322 0.513523
v -0.380713 1.350322 0.472954
v -0.417191 1.350322 0.443017
v -0.447128 1.350322 0.406538
v -0.469373 1.350322 0.364920
v -0.483072 1.350322 0.319762
v -0.469373 1.350322 0.180678
v -0.417191 1.350322 0.102582
v -0.380713 1.350322 0.072644
v -0.339094 1.350322 0.050399
vn -0.1945 0.0789 -0.9777
vn -0.0000 0.0789 -0.9969
vn -0.0000 -0.0789 -0.9969
vn -0.1945 -0.0789 -0.9777
vn -0.3815 0.0789 -0.9210
vn -0.3815 -0.0789 -0.9210
vn -0.5538 0.0789 -0.8289
vn -0.5538 -0.0789 -0.8289
vn -0.7049 0.0789 -0.7049
vn -0.7049 -0.0789 -0.7049
vn -0.8289 0.0789 -0.5538
vn -0.8289 -0.0789 -0.5538
vn -0.9210 0.0789 -0.3815
vn -0.9210 -0.0789 -0.3815
vn -0.9777 0.0789 -0.1945
vn -0.9777 -0.0789 -0.1945
vn -0.9969 0.0789 -0.0000
vn -0.9969 -0.0789 -0.0000
vn -0.9777 0.0789 0.1945
vn -0.9777 -0.0789 0.1945
vn -0.9210 0.0789 0.3815
vn -0.9210 -0.0789 0.3815
vn -0.8289 0.0789 0.5538
vn -0.8289 -0.0789 0.5538
vn -0.7049 0.0789 0.7049
vn -0.7049 -0.0789 0.7049
vn -0.5538 0.0789 0.8289
vn -0.5538 -0.0789 0.8289
vn -0.3815 0.0789 0.9210
vn -0.3815 -0.0789 0.9210
vn -0.1945 0.0789 0.9777
vn -0.1945 -0.0789 0.9777
vn -0.0000 0.0789 0.9969
vn -0.0000 -0.0789 0.9969
vn 0.1945 0.0789 0.9777
vn 0.1945 -0.0789 0.9777
vn 0.3815 0.0789 0.9210
vn 0.3815 -0.0789 0.9210
vn 0.5538 0.0789 0.8289
vn 0.5538 -0.0789 0.8289
vn 0.7049 0.0789 0.7049
vn 0.7049 -0.0789 0.7049
vn 0.8289 0.0789 0.5538
vn 0.8289 -0.0789 0.5538
vn 0.9210 0.0789 0.3815
vn 0.9210 -0.0789 0.3815
vn 0.9777 0.0789 0.1945
vn 0.9777 -0.0789 0.1945
vn 0.9969 0.0789 -0.0000
vn 0.9969 -0.0789 -0.0000
vn 0.9777 0.0789 -0.1945
vn 0.9777 -0.0789 -0.1945
vn 0.9210 0.0789 -0.3815
vn 0.9210 -0.0789 -0.3815
vn 0.8289 0.0789 -0.5538
vn 0.8289 -0.0789 -0.5538
vn 0.7049 0.0789 -0.7049
vn 0.7049 -0.0789 -0.7049
vn 0.5538 0.0789 -0.8289
vn 0.5538 -0.0789 -0.8289
vn 0.3815 0.0789 -0.9210
vn 0.3815 -0.0789 -0.9210
vn 0.1945 0.0789 -0.9777
vn 0.1945 -0.0789 -0.9777
vn -0.0200 -0.9947 -0.1006
vn -0.0000 -0.9947 -0.1025
vn 0.0200 0.9947 0.1006
vn -0.0000 0.9947 0.1025
vn 0.0200 -0.9947 0.1006
vn -0.0000 -0.9947 0.1025
vn -0.0200 0.9947 -0.1006
vn -0.0000 0.9947 -0.1025
vn -0.0392 -0.9947 -0.0947
vn 0.0392 0.9947 0.0947
vn 0.0392 -0.9947 0.0947
vn -0.0392 0.9947 -0.0947
vn -0.0570 -0.9947 -0.0852
vn 0.0570 0.9947 0.0852
vn 0.0570 -0.9947 0.0852
vn -0.0570 0.9947 -0.0852
vn -0.0725 -0.9947 -0.0725
vn 0.0725 0.9947 0.0725
vn 0.0725 -0.9947 0.0725
vn -0.0725 0.9947 -0.0725
vn -0.0852 -0.9947 -0.0570
vn 0.0852 0.9947 0.0570
vn 0.0852 -0.9947 0.0570
vn -0.0852 0.9947 -0.0570
vn -0.0947 -0.9947 -0.0392
vn 0.0947 0.9947 0.0392
vn 0.0947 -0.9947 0.0392
vn -0.0947 0.9947 -0.0392
vn -0.1006 -0.9947 -0.0200
vn 0.1006 0.9947 0.0200
vn 0.1006 -0.9947 0.0200
vn -0.1006 0.9947 -0.0200
vn -0.1025 -0.9947 -0.0000
vn 0.1025 0.9947 -0.0000
vn 0.1025 -0.9947 -0.0000
vn -0.1025 0.9947 -0.0000
vn -0.1006 -0.9947 0.0200
vn 0.1006 0.9947 -0.0200
vn 0.1006 -0.9947 -0.0200
vn -0.1006 0.9947 0.0200
vn -0.0947 -0.9947 0.0392
vn 0.0947 0.9947 -0.0392
vn 0.0947 -0.9947 -0.0392
vn -0.0947 0.9947 0.0392
vn -0.0852 -0.9947 0.0570
vn 0.0852 0.9947 -0.0570
vn 0.0852 -0.9947 -0.0570
vn -0.0852 0.9947 0.0570
vn -0.0725 -0.9947 0.0725
vn 0.0725 0.9947 -0.0725
vn 0.0725 -0.9947 -0.0725
vn -0.0725 0.9947 0.0725
vn -0.0570 -0.9947 0.0852
vn 0.0570 0.9947 -0.0852
vn 0.0570 -0.9947 -0.0852
vn -0.0570 0.9947 0.0852
vn -0.0392 -0.9947 0.0947
vn 0.0392 0.9947 -0.0947
vn 0.0392 -0.9947 -0.0947
vn -0.0392 0.9947 0.0947
vn -0.0200 -0.9947 0.1006
vn 0.0200 0.9947 -0.1006
vn 0.0200 -0.9947 -0.1006
vn -0.0200 0.9947 0.1006
vn -0.1935 -0.1287 -0.9726
vn -0.0000 -0.1490 -0.9888
vn -0.1929 -0.1490 -0.9698
vn 0.3795 -0.1287 -0.9162
vn 0.5494 -0.1490 -0.8222
vn 0.3784 -0.1490 -0.9136
vn 0.5509 -0.1287 -0.8246
vn 0.6992 -0.1490 -0.6992
vn 0.8246 -0.1287 -0.5509
vn 0.8222 -0.1490 -0.5494
vn 0.9136 -0.1490 -0.3784
vn 0.9162 -0.1287 -0.3795
vn 0.9698 -0.1490 -0.1929
vn 0.9726 -0.1287 -0.1935
vn 0.9888 -0.1490 -0.0000
vn 0.9917 -0.1287 -0.0000
vn 0.9698 -0.1490 0.1929
vn 0.9162 -0.1287 0.3795
vn 0.9136 -0.1490 0.3784
vn 0.8222 -0.1490 0.5494
vn 0.8246 -0.1287 0.5509
vn 0.6992 -0.1490 0.6992
vn 0.7012 -0.1287 0.7012
vn 0.5494 -0.1490 0.8222
vn 0.3795 -0.1287 0.9162
vn 0.3784 -0.1490 0.9136
vn 0.1929 -0.1490 0.9698
vn 0.1935 -0.1287 0.9726
vn -0.0000 -0.1490 0.9888
vn -0.0000 -0.1287 0.9917
vn -0.1929 -0.1490 0.9698
vn -0.3795 -0.1287 0.9162
vn -0.3784 -0.1490 0.9136
vn -0.5494 -0.1490 0.8222
vn -0.5509 -0.1287 0.8246
vn -0.6992 -0.1490 0.6992
vn -0.7012 -0.1287 0.7012
vn -0.8222 -0.1490 0.5494
vn -0.9162 -0.1287 0.3795
vn -0.9136 -0.1490 0.3784
vn -0.9698 -0.1490 0.1929
vn -0.9726 -0.1287 0.1935
vn -0.9888 -0.1490 -0.0000
vn -0.9917 -0.1287 -0.0000
vn -0.9698 -0.1490 -0.1929
vn -0.9162 -0.1287 -0.3795
vn -0.9136 -0.1490 -0.3784
vn -0.8222 -0.1490 -0.5494
vn -0.8246 -0.1287 -0.5509
vn -0.6992 -0.1490 -0.6992
vn -0.7012 -0.1287 -0.7012
vn -0.5494 -0.1490 -0.8222
vn -0.3795 -0.1287 -0.9162
vn -0.3784 -0.1490 -0.9136
vn 0.3827 -0.0000 -0.9239
vn 0.1951 -0.0000 -0.9808
vn -0.0000 -0.1287 -0.9917
vn 0.1929 -0.1490 -0.9698
vn 0.1951 -0.0000 0.9808
vn 0.3827 -0.0000 0.9239
vn 0.1935 -0.1287 -0.9726
vn -0.3784 0.1490 -0.9136
vn -0.1935 0.1287 -0.9726
vn -0.3795 0.1287 -0.9162
vn -0.5494 0.1490 -0.8222
vn -0.5509 0.1287 -0.8246
vn -0.6992 0.1490 -0.6992
vn -0.7012 0.1287 -0.7012
vn -0.8246 0.1287 -0.5509
vn -0.9136 0.1490 -0.3784
vn -0.9162 0.1287 -0.3795
vn -0.9698 0.1490 -0.1929
vn -0.9726 0.1287 -0.1935
vn -0.9888 0.1490 -0.0000
vn -0.9917 0.1287 -0.0000
vn -0.9698 0.1490 0.1929
vn -0.9726 0.1287 0.1935
vn -0.9162 0.1287 0.3795
vn -0.8222 0.1490 0.5494
vn -0.8246 0.1287 0.5509
vn -0.6992 0.1490 0.6992
vn -0.7012 0.1287 0.7012
vn -0.5494 0.1490 0.8222
vn -0.5509 0.1287 0.8246
vn -0.3795 0.1287 0.9162
vn -0.1929 0.1490 0.9698
vn -0.1935 0.1287 0.9726
vn -0.0000 0.1490 0.9888
vn -0.0000 0.1287 0.9917
vn 0.1935 0.1287 0.9726
vn 0.3784 0.1490 0.9136
vn 0.3795 0.1287 0.9162
vn 0.5494 0.1490 0.8222
vn 0.5509 0.1287 0.8246
vn 0.6992 0.1490 0.6992
vn 0.7012 0.1287 0.7012
vn 0.8246 0.1287 0.5509
vn 0.9136 0.1490 0.3784
vn 0.9162 0.1287 0.3795
vn 0.9698 0.1490 0.1929
vn 0.9726 0.1287 0.1935
vn 0.9917 0.1287 -0.0000
vn 0.9698 0.1490 -0.1929
vn 0.9726 0.1287 -0.1935
vn 0.9162 0.1287 -0.3795
vn 0.8222 0.1490 -0.5494
vn 0.8246 0.1287 -0.5509
vn 0.7012 0.1287 -0.7012
vn 0.5494 0.1490 -0.8222
vn 0.5509 0.1287 -0.8246
vn 0.3795 0.1287 -0.9162
vn 0.1929 0.1490 -0.9698
vn 0.1935 0.1287 -0.9726
vn -0.0000 0.1490 -0.9888
vn -0.0000 0.1287 -0.9917
vn -0.0000 0.0787 -0.9969
vn -0.1945 0.0787 -0.9777
vn -0.1950 0.0244 -0.9805
vn -0.0000 0.0244 -0.9997
vn -0.1950 -0.0244 -0.9805
vn -0.0000 -0.0244 -0.9997
vn -0.1945 -0.0787 -0.9777
vn -0.0000 -0.0787 -0.9969
vn -0.3815 0.0787 -0.9210
vn -0.3826 0.0244 -0.9236
vn -0.3826 -0.0244 -0.9236
vn -0.3815 -0.0787 -0.9210
vn -0.5538 0.0787 -0.8289
vn -0.5554 0.0244 -0.8312
vn -0.5554 -0.0244 -0.8312
vn -0.5538 -0.0787 -0.8289
vn -0.5509 -0.1287 -0.8246
vn -0.7049 0.0787 -0.7049
vn -0.7069 0.0244 -0.7069
vn -0.7069 -0.0244 -0.7069
vn -0.7049 -0.0787 -0.7049
vn -0.8289 0.0787 -0.5538
vn -0.8312 0.0244 -0.5554
vn -0.8312 -0.0244 -0.5554
vn -0.8289 -0.0787 -0.5538
vn -0.9210 0.0787 -0.3815
vn -0.9236 0.0244 -0.3826
vn -0.9236 -0.0244 -0.3826
vn -0.9210 -0.0787 -0.3815
vn -0.9777 0.0787 -0.1945
vn -0.9805 0.0244 -0.1950
vn -0.9805 -0.0244 -0.1950
vn -0.9777 -0.0787 -0.1945
vn -0.9726 -0.1287 -0.1935
vn -0.9969 0.0787 -0.0000
vn -0.9997 0.0244 -0.0000
vn -0.9997 -0.0244 -0.0000
vn -0.9969 -0.0787 -0.0000
vn -0.9777 0.0787 0.1945
vn -0.9805 0.0244 0.1950
vn -0.9805 -0.0244 0.1950
vn -0.9777 -0.0787 0.1945
vn -0.9210 0.0787 0.3815
vn -0.9236 0.0244 0.3826
vn -0.9236 -0.0244 0.3826
vn -0.9210 -0.0787 0.3815
vn -0.8289 0.0787 0.5538
vn -0.8312 0.0244 0.5554
vn -0.8312 -0.0244 0.5554
vn -0.8289 -0.0787 0.5538
vn -0.8246 -0.1287 0.5509
vn -0.7049 0.0787 0.7049
vn -0.7069 0.0244 0.7069
vn -0.7069 -0.0244 0.7069
vn -0.7049 -0.0787 0.7049
vn -0.5538 0.0787 0.8289
vn -0.5554 0.0244 0.8312
vn -0.5554 -0.0244 0.8312
vn -0.5538 -0.0787 0.8289
vn -0.3815 0.0787 0.9210
vn -0.3826 0.0244 0.9236
vn -0.3826 -0.0244 0.9236
vn -0.3815 -0.0787 0.9210
vn -0.1945 0.0787 0.9777
vn -0.1950 0.0244 0.9805
vn -0.1950 -0.0244 0.9805
vn -0.1945 -0.0787 0.9777
vn -0.1935 -0.1287 0.9726
vn -0.0000 0.0787 0.9969
vn -0.0000 0.0244 0.9997
vn -0.0000 -0.0244 0.9997
vn -0.0000 -0.0787 0.9969
vn 0.1945 0.0787 0.9777
vn 0.1950 0.0244 0.9805
vn 0.1950 -0.0244 0.9805
vn 0.1945 -0.0787 0.9777
vn 0.3815 0.0787 0.9210
vn 0.3826 0.0244 0.9236
vn 0.3826 -0.0244 0.9236
vn 0.3815 -0.0787 0.9210
vn 0.5538 0.0787 0.8289
vn 0.5554 0.0244 0.8312
vn 0.5554 -0.0244 0.8312
vn 0.5538 -0.0787 0.8289
vn 0.5509 -0.1287 0.8246
vn 0.7049 0.0787 0.7049
vn 0.7069 0.0244 0.7069
vn 0.7069 -0.0244 0.7069
vn 0.7049 -0.0787 0.7049
vn 0.8289 0.0787 0.5538
vn 0.8312 0.0244 0.5554
vn 0.8312 -0.0244 0.5554
vn 0.8289 -0.0787 0.5538
vn 0.9210 0.0787 0.3815
vn 0.9236 0.0244 0.3826
vn 0.9236 -0.0244 0.3826
vn 0.9210 -0.0787 0.3815
vn 0.9777 0.0787 0.1945
vn 0.9805 0.0244 0.1950
vn 0.9805 -0.0244 0.1950
vn 0.9777 -0.0787 0.1945
vn 0.9726 -0.1287 0.1935
vn 0.9969 0.0787 -0.0000
vn 0.9997 0.0244 -0.0000
vn 0.9997 -0.0244 -0.0000
vn 0.9969 -0.0787 -0.0000
vn 0.9777 0.0787 -0.1945
vn 0.9805 0.0244 -0.1950
vn 0.9805 -0.0244 -0.1950
vn 0.9777 -0.0787 -0.1945
vn 0.9210 0.0787 -0.3815
vn 0.9236 0.0244 -0.3826
vn 0.9236 -0.0244 -0.3826
vn 0.9210 -0.0787 -0.3815
vn 0.8289 0.0787 -0.5538
vn 0.8312 0.0244 -0.5554
vn 0.8312 -0.0244 -0.5554
vn 0.8289 -0.0787 -0.5538
vn 0.7049 0.0787 -0.7049
vn 0.7069 0.0244 -0.7069
vn 0.7069 -0.0244 -0.7069
vn 0.7049 -0.0787 -0.7049
vn 0.7012 -0.1287 -0.7012
vn 0.5538 0.0787 -0.8289
vn 0.5554 0.0244 -0.8312
vn 0.5554 -0.0244 -0.8312
vn 0.5538 -0.0787 -0.8289
vn 0.3815 0.0787 -0.9210
vn 0.3826 0.0244 -0.9236
vn 0.3826 -0.0244 -0.9236
vn 0.3815 -0.0787 -0.9210
vn 0.1945 0.0787 -0.9777
vn 0.1950 0.0244 -0.9805
vn 0.1950 -0.0244 -0.9805
vn 0.1945 -0.0787 -0.9777
vn -0.0000 -1.0000 -0.0000
vn -0.0000 1.0000 -0.0000
vn -0.8315 -0.0000 0.5556
vn -0.7071 -0.0000 0.7071
vn -0.0000 -0.0000 1.0000
vn 0.5556 -0.0000 -0.8315
vn -0.9239 -0.0000 0.3827
vn 0.7071 -0.0000 -0.7071
vn -0.9808 -0.0000 0.1951
vn 0.8315 -0.0000 -0.5556
vn -1.0000 -0.0000 -0.0000
vn 0.9239 -0.0000 -0.3827
vn -0.9808 -0.0000 -0.1951
vn 0.9808 -0.0000 -0.1951
vn -0.9239 -0.0000 -0.3827
vn 1.0000 -0.0000 -0.0000
vn -0.8315 -0.0000 -0.5556
vn 0.9808 -0.0000 0.1951
vn -0.7071 -0.0000 -0.7071
vn 0.9239 -0.0000 0.3827
vn -0.5556 -0.0000 -0.8315
vn 0.8315 -0.0000 0.5556
vn -0.3827 -0.0000 -0.9239
vn -0.1951 -0.0000 0.9808
vn 0.7071 -0.0000 0.7071
vn -0.1951 -0.0000 -0.9808
vn -0.3827 -0.0000 0.9239
vn 0.5556 -0.0000 0.8315
vn -0.0000 -0.0000 -1.0000
vn -0.5556 -0.0000 0.8315
vn -0.1929 0.1490 -0.9698
vn -0.8222 0.1490 -0.5494
vn -0.9136 0.1490 0.3784
vn -0.3784 0.1490 0.9136
vn 0.1929 0.1490 0.9698
vn 0.8222 0.1490 0.5494
vn 0.9888 0.1490 -0.0000
vn 0.9136 0.1490 -0.3784
vn 0.6992 0.1490 -0.6992
vn 0.3784 0.1490 -0.9136
vt 1.734610 0.356019
vt 1.774136 0.379623
vt 1.734610 0.379623
vt 1.688227 0.379622
vt 1.727754 0.356018
vt 1.727754 0.379622
vt 1.734610 0.332414
vt 1.774136 0.356019
vt 1.688227 0.332413
vt 1.688227 0.356018
vt 1.734610 0.308810
vt 1.774136 0.332414
vt 1.688227 0.308809
vt 1.727754 0.332413
vt 1.734610 0.285205
vt 1.774136 0.308810
vt 1.688227 0.285205
vt 1.727754 0.308809
vt 1.734610 0.261601
vt 1.774136 0.285205
vt 1.688227 0.261601
vt 1.727754 0.285205
vt 1.734610 0.237997
vt 1.774136 0.261601
vt 1.688227 0.237996
vt 1.727754 0.261601
vt 1.774136 0.214392
vt 1.774136 0.237997
vt 1.688227 0.214392
vt 1.727754 0.237996
vt 1.734610 0.214392
vt 1.774136 0.190788
vt 1.688227 0.190788
vt 1.727754 0.214392
vt 1.734610 0.167184
vt 1.734610 0.190788
vt 1.688227 0.167183
vt 1.727754 0.190788
vt 1.734610 0.143579
vt 1.774136 0.167184
vt 1.688227 0.143579
vt 1.727754 0.167183
vt 1.734610 0.119975
vt 1.774136 0.143579
vt 1.688227 0.119975
vt 1.727754 0.143579
vt 1.734610 0.096371
vt 1.774136 0.119975
vt 1.688228 0.096370
vt 1.727754 0.119975
vt 1.734610 0.072766
vt 1.774136 0.096371
vt 1.688228 0.072766
vt 1.727754 0.096370
vt 1.734610 0.049162
vt 1.774136 0.072766
vt 1.688228 0.049162
vt 1.727754 0.072766
vt 1.734610 0.025558
vt 1.774136 0.049162
vt 1.688228 0.025557
vt 1.727754 0.049162
vt 1.774136 0.001953
vt 1.774136 0.025558
vt 1.688228 0.001953
vt 1.727754 0.025557
vt 1.734610 0.733688
vt 1.774136 0.757293
vt 1.734610 0.757293
vt 1.688228 0.733687
vt 1.727754 0.757291
vt 1.688228 0.757291
vt 1.734610 0.710084
vt 1.774136 0.733688
vt 1.688227 0.710082
vt 1.727754 0.733687
vt 1.734610 0.686480
vt 1.774136 0.710084
vt 1.688227 0.686478
vt 1.727754 0.710082
vt 1.774136 0.662875
vt 1.774136 0.686480
vt 1.688227 0.662874
vt 1.727754 0.686478
vt 1.734610 0.639271
vt 1.734610 0.662875
vt 1.688227 0.639269
vt 1.727754 0.662874
vt 1.734610 0.615667
vt 1.774136 0.639271
vt 1.688227 0.615665
vt 1.727754 0.639269
vt 1.734610 0.592062
vt 1.774136 0.615667
vt 1.688227 0.592061
vt 1.727754 0.615665
vt 1.774136 0.568458
vt 1.774136 0.592062
vt 1.688227 0.568456
vt 1.727754 0.592061
vt 1.734610 0.544853
vt 1.734610 0.568458
vt 1.688227 0.544852
vt 1.727754 0.568456
vt 1.774136 0.521249
vt 1.774136 0.544853
vt 1.688227 0.521248
vt 1.727754 0.544852
vt 1.734610 0.521249
vt 1.774136 0.497645
vt 1.688227 0.497644
vt 1.727754 0.521248
vt 1.734610 0.497645
vt 1.774136 0.474040
vt 1.688227 0.474039
vt 1.727754 0.497644
vt 1.734610 0.450436
vt 1.734610 0.474040
vt 1.688227 0.450435
vt 1.727754 0.474039
vt 1.734610 0.426831
vt 1.774136 0.450436
vt 1.727754 0.426830
vt 1.727754 0.450435
vt 1.774136 0.403227
vt 1.774136 0.426831
vt 1.688227 0.403226
vt 1.688227 0.426830
vt 1.734610 0.403227
vt 1.727754 0.403226
vt 1.395184 0.877581
vt 1.372052 0.869744
vt 1.395184 0.869744
vt 1.383365 0.899129
vt 1.360929 0.906966
vt 1.360929 0.899129
vt 1.899865 0.383353
vt 1.907702 0.360918
vt 1.907702 0.383353
vt 1.348918 0.892274
vt 1.372049 0.884437
vt 1.372049 0.892274
vt 1.418315 0.877581
vt 1.418315 0.869744
vt 1.405801 0.906966
vt 1.383365 0.906966
vt 1.899865 0.405789
vt 1.907702 0.405789
vt 1.325787 0.892274
vt 1.348918 0.884437
vt 1.441446 0.869744
vt 1.441446 0.877581
vt 1.405801 0.899129
vt 1.428237 0.906966
vt 1.907702 0.428224
vt 1.899865 0.428224
vt 1.302656 0.892274
vt 1.325787 0.884437
vt 1.464577 0.877581
vt 1.464577 0.869744
vt 1.428237 0.899129
vt 1.450673 0.906966
vt 1.899865 0.450659
vt 1.907702 0.450659
vt 1.279525 0.892274
vt 1.302656 0.884437
vt 1.487708 0.869744
vt 1.487708 0.877581
vt 1.450673 0.899129
vt 1.473109 0.906966
vt 1.899865 0.473094
vt 1.907702 0.473094
vt 1.256394 0.884437
vt 1.279525 0.884437
vt 1.510839 0.877581
vt 1.510839 0.869744
vt 1.495545 0.899129
vt 1.473109 0.899129
vt 1.899865 0.495530
vt 1.907702 0.495530
vt 1.233263 0.892274
vt 1.256394 0.892274
vt 1.533971 0.869744
vt 1.533971 0.877581
vt 1.517981 0.899129
vt 1.495545 0.906966
vt 1.907702 0.517965
vt 1.899865 0.517965
vt 1.210132 0.884437
vt 1.233263 0.884437
vt 1.557102 0.869744
vt 1.557102 0.877581
vt 1.540417 0.906966
vt 1.517981 0.906966
vt 1.907702 0.540400
vt 1.899865 0.540400
vt 1.210132 0.892274
vt 1.187001 0.884437
vt 1.580233 0.869744
vt 1.580233 0.877581
vt 1.562853 0.899129
vt 1.540417 0.899129
vt 1.899866 0.562836
vt 1.907702 0.562836
vt 1.163870 0.892274
vt 1.187001 0.892274
vt 1.603364 0.869744
vt 1.603364 0.877581
vt 1.585289 0.906966
vt 1.562853 0.906966
vt 1.907702 0.585271
vt 1.899866 0.585271
vt 1.140739 0.892274
vt 1.163870 0.884437
vt 1.626496 0.869744
vt 1.626496 0.877581
vt 1.585289 0.899129
vt 1.607725 0.906966
vt 1.907702 0.607706
vt 1.899866 0.607706
vt 1.117608 0.892274
vt 1.140739 0.884437
vt 1.649627 0.877581
vt 1.649627 0.869744
vt 1.607725 0.899129
vt 1.630161 0.906966
vt 1.899866 0.630141
vt 1.907702 0.630141
vt 1.094477 0.892274
vt 1.117608 0.884437
vt 1.672758 0.869744
vt 1.672758 0.877581
vt 1.630161 0.899129
vt 1.652597 0.906966
vt 1.899866 0.652577
vt 1.907702 0.652577
vt 1.071346 0.884437
vt 1.094477 0.884437
vt 1.695889 0.869744
vt 1.695889 0.877581
vt 1.675033 0.899129
vt 1.652597 0.899129
vt 1.899866 0.675012
vt 1.907702 0.675012
vt 1.048215 0.892274
vt 1.071346 0.892274
vt 1.719020 0.869744
vt 1.719020 0.877581
vt 1.697469 0.899129
vt 1.675033 0.906966
vt 1.899866 0.697447
vt 1.907702 0.697447
vt 1.025084 0.884437
vt 1.048215 0.884437
vt 1.742151 0.869744
vt 1.742151 0.877581
vt 1.719905 0.906966
vt 1.697469 0.906966
vt 1.907702 0.719883
vt 1.899866 0.719883
vt 1.025084 0.892274
vt 1.001953 0.884437
vt 1.025084 0.877581
vt 1.001953 0.869744
vt 1.025084 0.869744
vt 1.024389 0.899129
vt 1.001953 0.906966
vt 1.001953 0.899129
vt 1.899865 0.024389
vt 1.907702 0.001953
vt 1.907702 0.024389
vt 1.719013 0.892274
vt 1.742144 0.884437
vt 1.742144 0.892274
vt 1.048216 0.877581
vt 1.048216 0.869744
vt 1.046825 0.899129
vt 1.024389 0.906966
vt 1.907702 0.046824
vt 1.899865 0.046824
vt 1.695882 0.892274
vt 1.719013 0.884437
vt 1.071347 0.869744
vt 1.071347 0.877581
vt 1.069261 0.899129
vt 1.046825 0.906966
vt 1.899865 0.069259
vt 1.907702 0.069259
vt 1.672752 0.884437
vt 1.695882 0.884437
vt 1.094478 0.869744
vt 1.094478 0.877581
vt 1.091697 0.906966
vt 1.069261 0.906966
vt 1.907702 0.091694
vt 1.899865 0.091694
vt 1.672752 0.892274
vt 1.649620 0.884437
vt 1.117609 0.877581
vt 1.117609 0.869744
vt 1.114133 0.899129
vt 1.091697 0.899129
vt 1.899865 0.114130
vt 1.907702 0.114130
vt 1.649620 0.892274
vt 1.626490 0.884437
vt 1.140740 0.869744
vt 1.140740 0.877581
vt 1.136569 0.899129
vt 1.114133 0.906966
vt 1.907702 0.136565
vt 1.899865 0.136565
vt 1.626490 0.892274
vt 1.603359 0.884437
vt 1.163872 0.869744
vt 1.163872 0.877581
vt 1.159005 0.899129
vt 1.136569 0.906966
vt 1.907702 0.159000
vt 1.899865 0.159000
vt 1.603359 0.892274
vt 1.580228 0.884437
vt 1.187003 0.869744
vt 1.187003 0.877581
vt 1.181441 0.906966
vt 1.159005 0.906966
vt 1.907702 0.181436
vt 1.899865 0.181436
vt 1.580228 0.892274
vt 1.557097 0.884437
vt 1.210134 0.869744
vt 1.210134 0.877581
vt 1.203877 0.899129
vt 1.181441 0.899129
vt 1.899865 0.203871
vt 1.907702 0.203871
vt 1.533966 0.892274
vt 1.557097 0.892274
vt 1.233265 0.869744
vt 1.233265 0.877581
vt 1.226313 0.906966
vt 1.203877 0.906966
vt 1.907702 0.226306
vt 1.899865 0.226306
vt 1.510835 0.892274
vt 1.533966 0.884437
vt 1.256396 0.877581
vt 1.256396 0.869744
vt 1.248749 0.899129
vt 1.226313 0.899129
vt 1.907702 0.248742
vt 1.899865 0.248742
vt 1.487704 0.892274
vt 1.510835 0.884437
vt 1.279528 0.877581
vt 1.279528 0.869744
vt 1.271185 0.906966
vt 1.248749 0.906966
vt 1.907702 0.271177
vt 1.899865 0.271177
vt 1.464573 0.884437
vt 1.487704 0.884437
vt 1.302659 0.877581
vt 1.302659 0.869744
vt 1.293621 0.899129
vt 1.271185 0.899129
vt 1.899865 0.293612
vt 1.907702 0.293612
vt 1.441442 0.892274
vt 1.464573 0.892274
vt 1.325790 0.877581
vt 1.325790 0.869744
vt 1.316057 0.899129
vt 1.293621 0.906966
vt 1.907702 0.316047
vt 1.899865 0.316047
vt 1.418311 0.892274
vt 1.441442 0.884437
vt 1.348921 0.869744
vt 1.348921 0.877581
vt 1.338493 0.899129
vt 1.316057 0.906966
vt 1.907702 0.338483
vt 1.899865 0.338483
vt 1.395180 0.884437
vt 1.418311 0.884437
vt 1.372052 0.877581
vt 1.338493 0.906966
vt 1.899865 0.360918
vt 1.395180 0.892274
vt 1.246527 0.370595
vt 1.284447 0.348910
vt 1.284447 0.370595
vt 1.246527 0.305541
vt 1.284447 0.283856
vt 1.284447 0.305541
vt 1.246527 0.283856
vt 1.284447 0.262171
vt 1.246527 0.240486
vt 1.284447 0.240486
vt 1.284447 0.218801
vt 1.246527 0.218802
vt 1.284447 0.197117
vt 1.246527 0.197117
vt 1.284447 0.175432
vt 1.246527 0.175432
vt 1.284447 0.153747
vt 1.246527 0.132062
vt 1.284447 0.132062
vt 1.284447 0.110377
vt 1.246527 0.110377
vt 1.284447 0.088692
vt 1.246527 0.088692
vt 1.284447 0.067008
vt 1.246527 0.045323
vt 1.284447 0.045323
vt 1.284447 0.023638
vt 1.246527 0.023638
vt 1.284447 0.001953
vt 1.246527 0.695868
vt 1.284447 0.674183
vt 1.284447 0.695868
vt 1.246527 0.652498
vt 1.284447 0.652498
vt 1.284447 0.630813
vt 1.246527 0.630813
vt 1.284447 0.609128
vt 1.246527 0.609128
vt 1.284447 0.587444
vt 1.246527 0.565759
vt 1.284447 0.565759
vt 1.284447 0.544074
vt 1.246527 0.544074
vt 1.284447 0.522389
vt 1.246527 0.522389
vt 1.284447 0.500704
vt 1.246527 0.479019
vt 1.284447 0.479019
vt 1.284447 0.457335
vt 1.246527 0.457335
vt 1.284447 0.435650
vt 1.246527 0.435650
vt 1.284447 0.413965
vt 1.246527 0.392280
vt 1.284447 0.392280
vt 1.501738 0.851318
vt 1.518397 0.833433
vt 1.518397 0.851318
vt 1.246527 0.348910
vt 1.284447 0.327226
vt 1.285164 0.851318
vt 1.301824 0.833433
vt 1.301824 0.851318
vt 1.246527 0.327226
vt 1.001953 0.392280
vt 1.039872 0.370595
vt 1.039872 0.392280
vt 1.001953 0.413965
vt 1.039872 0.413965
vt 1.001953 0.435650
vt 1.039872 0.435650
vt 1.039872 0.457335
vt 1.001953 0.479019
vt 1.039872 0.479019
vt 1.001953 0.500704
vt 1.039872 0.500704
vt 1.001953 0.522389
vt 1.039872 0.522389
vt 1.001953 0.544074
vt 1.039872 0.544074
vt 1.039872 0.565759
vt 1.001953 0.587444
vt 1.039872 0.587444
vt 1.001953 0.609128
vt 1.039872 0.609128
vt 1.001953 0.630813
vt 1.039872 0.630813
vt 1.039872 0.652498
vt 1.001953 0.674183
vt 1.039872 0.674183
vt 1.001953 0.695868
vt 1.039872 0.695868
vt 1.039872 0.023638
vt 1.001953 0.001953
vt 1.039872 0.001953
vt 1.001953 0.045323
vt 1.039872 0.045323
vt 1.001953 0.067008
vt 1.039872 0.067008
vt 1.001953 0.088692
vt 1.039872 0.088692
vt 1.039872 0.110377
vt 1.001953 0.132062
vt 1.039872 0.132062
vt 1.001953 0.153747
vt 1.039872 0.153747
vt 1.039872 0.175432
vt 1.001953 0.197117
vt 1.039872 0.197117
vt 1.039872 0.218802
vt 1.001953 0.240486
vt 1.039872 0.240486
vt 1.039872 0.262171
vt 1.001953 0.283856
vt 1.039872 0.283856
vt 1.039872 0.305541
vt 1.001953 0.327226
vt 1.039872 0.327226
vt 1.001953 0.348910
vt 1.039872 0.348910
vt 1.077019 0.348910
vt 1.077019 0.370595
vt 1.120419 0.370595
vt 1.120419 0.348910
vt 1.165981 0.370595
vt 1.165981 0.348910
vt 1.209381 0.370595
vt 1.209380 0.348910
vt 1.077019 0.392280
vt 1.120419 0.392280
vt 1.165981 0.392280
vt 1.209381 0.392280
vt 1.077019 0.413965
vt 1.120419 0.413965
vt 1.165981 0.413965
vt 1.209381 0.413965
vt 1.246527 0.413965
vt 1.077019 0.435650
vt 1.120419 0.435650
vt 1.165981 0.435650
vt 1.209381 0.435650
vt 1.077019 0.457335
vt 1.120419 0.457335
vt 1.165981 0.457335
vt 1.209380 0.457335
vt 1.077019 0.479019
vt 1.120419 0.479019
vt 1.165981 0.479019
vt 1.209381 0.479019
vt 1.077019 0.500704
vt 1.120419 0.500704
vt 1.165981 0.500704
vt 1.209380 0.500704
vt 1.246527 0.500704
vt 1.077019 0.522389
vt 1.120419 0.522389
vt 1.165981 0.522389
vt 1.209381 0.522389
vt 1.077019 0.544074
vt 1.120419 0.544074
vt 1.165981 0.544074
vt 1.209381 0.544074
vt 1.077019 0.565759
vt 1.120419 0.565759
vt 1.165981 0.565759
vt 1.209381 0.565759
vt 1.077019 0.587444
vt 1.120419 0.587444
vt 1.165981 0.587444
vt 1.209381 0.587444
vt 1.246527 0.587444
vt 1.077019 0.609128
vt 1.120419 0.609128
vt 1.165981 0.609128
vt 1.209381 0.609128
vt 1.077019 0.630813
vt 1.120419 0.630813
vt 1.165981 0.630813
vt 1.209380 0.630813
vt 1.077019 0.652498
vt 1.120419 0.652498
vt 1.165981 0.652498
vt 1.209381 0.652498
vt 1.077019 0.674183
vt 1.120419 0.674183
vt 1.165981 0.674183
vt 1.209381 0.674183
vt 1.246527 0.674183
vt 1.077019 0.695868
vt 1.120419 0.695868
vt 1.165981 0.695868
vt 1.209380 0.695868
vt 1.077019 0.001953
vt 1.077019 0.023638
vt 1.120419 0.023638
vt 1.120419 0.001953
vt 1.165981 0.023638
vt 1.165981 0.001953
vt 1.209381 0.023638
vt 1.209380 0.001953
vt 1.077019 0.045323
vt 1.120419 0.045323
vt 1.165981 0.045323
vt 1.209381 0.045323
vt 1.077019 0.067008
vt 1.120419 0.067008
vt 1.165981 0.067008
vt 1.209381 0.067008
vt 1.246527 0.067008
vt 1.077019 0.088692
vt 1.120419 0.088692
vt 1.165981 0.088692
vt 1.209381 0.088692
vt 1.077019 0.110377
vt 1.120419 0.110377
vt 1.165981 0.110377
vt 1.209381 0.110377
vt 1.077019 0.132062
vt 1.120419 0.132062
vt 1.165981 0.132062
vt 1.209381 0.132062
vt 1.077019 0.153747
vt 1.120419 0.153747
vt 1.165981 0.153747
vt 1.209380 0.153747
vt 1.246527 0.153747
vt 1.077019 0.175432
vt 1.120419 0.175432
vt 1.165981 0.175432
vt 1.209381 0.175432
vt 1.077019 0.197117
vt 1.120419 0.197117
vt 1.165981 0.197117
vt 1.209381 0.197117
vt 1.077019 0.218801
vt 1.120419 0.218802
vt 1.165981 0.218802
vt 1.209381 0.218802
vt 1.077019 0.240486
vt 1.120419 0.240486
vt 1.165981 0.240486
vt 1.209380 0.240486
vt 1.077019 0.262171
vt 1.120419 0.262171
vt 1.165981 0.262171
vt 1.209381 0.262171
vt 1.246527 0.262171
vt 1.077019 0.283856
vt 1.120419 0.283856
vt 1.165981 0.283856
vt 1.209381 0.283856
vt 1.077019 0.305541
vt 1.120419 0.305541
vt 1.165981 0.305541
vt 1.209380 0.305541
vt 1.077019 0.327226
vt 1.120419 0.327226
vt 1.165981 0.327226
vt 1.209381 0.327226
vt 1.294902 0.826577
vt 1.313211 0.809337
vt 1.313211 0.826577
vt 1.294901 0.785240
vt 1.313210 0.802481
vt 1.313210 0.785240
vt 1.331521 0.809337
vt 1.331521 0.826577
vt 1.331519 0.785240
vt 1.349830 0.826577
vt 1.349830 0.809337
vt 1.331519 0.802481
vt 1.349828 0.785240
vt 1.368139 0.809337
vt 1.368139 0.826577
vt 1.368138 0.802481
vt 1.368138 0.785240
vt 1.386449 0.826577
vt 1.386449 0.809337
vt 1.386447 0.785240
vt 1.404758 0.809337
vt 1.404758 0.826577
vt 1.404756 0.802481
vt 1.404756 0.785240
vt 1.423067 0.809337
vt 1.423067 0.826577
vt 1.423066 0.785240
vt 1.441376 0.809337
vt 1.441376 0.826577
vt 1.423066 0.802481
vt 1.441375 0.785240
vt 1.459686 0.809337
vt 1.459686 0.826577
vt 1.459684 0.802481
vt 1.459684 0.785240
vt 1.477995 0.809337
vt 1.477995 0.826577
vt 1.477993 0.785240
vt 1.496304 0.826577
vt 1.496304 0.809337
vt 1.477993 0.802481
vt 1.496302 0.785240
vt 1.514614 0.809337
vt 1.514614 0.826577
vt 1.514612 0.802481
vt 1.514612 0.785240
vt 1.532923 0.826577
vt 1.532923 0.809337
vt 1.532921 0.785240
vt 1.551232 0.809337
vt 1.551232 0.826577
vt 1.551230 0.802481
vt 1.551230 0.785240
vt 1.569541 0.809337
vt 1.569541 0.826577
vt 1.569540 0.785240
vt 1.587851 0.809337
vt 1.587851 0.826577
vt 1.569540 0.802481
vt 1.587849 0.785240
vt 1.001953 0.826577
vt 1.020262 0.809337
vt 1.020262 0.826577
vt 1.001953 0.785240
vt 1.020262 0.802481
vt 1.020262 0.785240
vt 1.038572 0.809337
vt 1.038572 0.826577
vt 1.038572 0.785240
vt 1.056881 0.826577
vt 1.056881 0.809337
vt 1.038572 0.802481
vt 1.056881 0.785240
vt 1.075190 0.809337
vt 1.075190 0.826577
vt 1.075190 0.802481
vt 1.075190 0.785240
vt 1.093500 0.826577
vt 1.093500 0.809337
vt 1.093499 0.785240
vt 1.111809 0.809337
vt 1.111809 0.826577
vt 1.111808 0.802481
vt 1.111808 0.785240
vt 1.130118 0.809337
vt 1.130118 0.826577
vt 1.130118 0.785240
vt 1.148428 0.809337
vt 1.148428 0.826577
vt 1.130118 0.802481
vt 1.148427 0.785240
vt 1.166737 0.809337
vt 1.166737 0.826577
vt 1.166736 0.802481
vt 1.166736 0.785240
vt 1.185046 0.809337
vt 1.185046 0.826577
vt 1.185046 0.785240
vt 1.203356 0.826577
vt 1.203356 0.809337
vt 1.185046 0.802481
vt 1.203355 0.785240
vt 1.221665 0.809337
vt 1.221665 0.826577
vt 1.221664 0.802481
vt 1.221664 0.785240
vt 1.239974 0.826577
vt 1.239974 0.809337
vt 1.239973 0.785240
vt 1.258283 0.809337
vt 1.258283 0.826577
vt 1.258282 0.802481
vt 1.258282 0.785240
vt 1.276593 0.809337
vt 1.276593 0.826577
vt 1.276592 0.785240
vt 1.294902 0.809337
vt 1.276592 0.802481
vt 1.185207 0.851318
vt 1.201867 0.833433
vt 1.201867 0.851318
vt 1.798876 0.301824
vt 1.780991 0.285165
vt 1.798876 0.285165
vt 1.798876 0.501738
vt 1.780991 0.518398
vt 1.780991 0.501738
vt 1.798876 0.201867
vt 1.780991 0.185208
vt 1.798876 0.185208
vt 1.268505 0.851318
vt 1.285164 0.833433
vt 1.485078 0.851318
vt 1.501738 0.833433
vt 1.168548 0.851318
vt 1.185207 0.833433
vt 1.780991 0.268505
vt 1.798876 0.268505
vt 1.780991 0.485079
vt 1.798876 0.485079
vt 1.798876 0.168548
vt 1.780991 0.168548
vt 1.468419 0.851318
vt 1.485078 0.833433
vt 1.151888 0.851318
vt 1.168548 0.833433
vt 1.780991 0.468419
vt 1.798876 0.468419
vt 1.780991 0.151889
vt 1.798876 0.151889
vt 1.451759 0.851318
vt 1.468419 0.833433
vt 1.135229 0.851318
vt 1.151888 0.833433
vt 1.780991 0.451760
vt 1.798876 0.451760
vt 1.780991 0.135229
vt 1.798876 0.135229
vt 1.435100 0.851318
vt 1.451759 0.833433
vt 1.118569 0.851318
vt 1.135229 0.833433
vt 1.780991 0.435100
vt 1.798876 0.435100
vt 1.798876 0.118570
vt 1.780991 0.118570
vt 1.418440 0.851318
vt 1.435100 0.833433
vt 1.101910 0.851318
vt 1.118569 0.833433
vt 1.780991 0.418441
vt 1.798876 0.418441
vt 1.780991 0.101910
vt 1.798876 0.101910
vt 1.401781 0.851318
vt 1.418440 0.833433
vt 1.085250 0.851318
vt 1.101910 0.833433
vt 1.780991 0.401781
vt 1.798876 0.401781
vt 1.780991 0.085251
vt 1.798876 0.085251
vt 1.385121 0.851318
vt 1.401781 0.833433
vt 1.068591 0.851318
vt 1.085250 0.833433
vt 1.780991 0.385122
vt 1.798876 0.385122
vt 1.798876 0.068591
vt 1.780991 0.068591
vt 1.368462 0.851318
vt 1.385121 0.833433
vt 1.051931 0.851318
vt 1.068591 0.833433
vt 1.780991 0.368462
vt 1.798876 0.368462
vt 1.780991 0.051932
vt 1.798876 0.051932
vt 1.351802 0.851318
vt 1.368462 0.833433
vt 1.035272 0.851318
vt 1.051931 0.833433
vt 1.251846 0.851318
vt 1.268505 0.833433
vt 1.780991 0.351803
vt 1.798876 0.351803
vt 1.798876 0.035272
vt 1.780991 0.035272
vt 1.780991 0.251846
vt 1.798876 0.251846
vt 1.335143 0.851318
vt 1.351802 0.833433
vt 1.018613 0.851318
vt 1.035272 0.833433
vt 1.235186 0.851318
vt 1.251846 0.833433
vt 1.798876 0.335143
vt 1.780991 0.335143
vt 1.780991 0.018613
vt 1.798876 0.018613
vt 1.780991 0.235186
vt 1.798876 0.235186
vt 1.318483 0.851318
vt 1.335143 0.833433
vt 1.001953 0.851318
vt 1.018613 0.833433
vt 1.218526 0.851318
vt 1.235186 0.833433
vt 1.780991 0.318484
vt 1.798876 0.318484
vt 1.798876 0.001953
vt 1.780991 0.001953
vt 1.780991 0.218527
vt 1.798876 0.218527
vt 1.318483 0.833433
vt 1.535057 0.833433
vt 1.535057 0.851318
vt 1.218526 0.833433
vt 1.780991 0.301824
vt 1.798876 0.535058
vt 1.798876 0.518398
vt 1.780991 0.201867
vt 1.576193 0.283136
vt 1.567863 0.367709
vt 1.551523 0.364459
vt 1.584522 0.367709
vt 1.600862 0.364459
vt 1.616253 0.358084
vt 1.630105 0.348828
vt 1.641885 0.337048
vt 1.651141 0.323196
vt 1.657516 0.307805
vt 1.660767 0.291465
vt 1.660767 0.274806
vt 1.657516 0.258466
vt 1.651141 0.243075
vt 1.641885 0.229223
vt 1.630105 0.217443
vt 1.616253 0.208187
vt 1.600862 0.201812
vt 1.584522 0.198562
vt 1.567863 0.198562
vt 1.551523 0.201812
vt 1.536132 0.208187
vt 1.522280 0.217443
vt 1.510500 0.229223
vt 1.501245 0.243075
vt 1.494869 0.258466
vt 1.491619 0.274806
vt 1.491619 0.291465
vt 1.494869 0.307805
vt 1.501245 0.323196
vt 1.510500 0.337048
vt 1.522280 0.348828
vt 1.536132 0.358084
vt 1.576193 0.669497
vt 1.657516 0.694167
vt 1.651140 0.709558
vt 1.641885 0.723410
vt 1.630105 0.735190
vt 1.616253 0.744446
vt 1.600862 0.750821
vt 1.584522 0.754071
vt 1.567863 0.754071
vt 1.551523 0.750821
vt 1.536131 0.744446
vt 1.522280 0.735190
vt 1.510499 0.723410
vt 1.501244 0.709558
vt 1.494869 0.694167
vt 1.491619 0.677827
vt 1.491619 0.661167
vt 1.494869 0.644828
vt 1.501244 0.629436
vt 1.510500 0.615584
vt 1.522280 0.603804
vt 1.536132 0.594549
vt 1.551523 0.588174
vt 1.567863 0.584923
vt 1.584522 0.584923
vt 1.600862 0.588174
vt 1.616253 0.594549
vt 1.630105 0.603805
vt 1.641885 0.615585
vt 1.651141 0.629437
vt 1.657516 0.644828
vt 1.660766 0.661168
vt 1.660766 0.677827
vt 1.734610 0.001953
vt 1.727754 0.001953
vt 1.719905 0.899129
vt 1.001953 0.892274
vt 1.001953 0.877581
vt 1.899865 0.001953
vt 1.246527 0.001953
vt 1.001953 0.370595
vt 1.001953 0.457335
vt 1.001953 0.565759
vt 1.001953 0.652498
vt 1.001953 0.023638
vt 1.001953 0.110377
vt 1.001953 0.175432
vt 1.001953 0.218801
vt 1.001953 0.262171
vt 1.001953 0.305541
vt 1.294901 0.802481
vt 1.349828 0.802481
vt 1.386447 0.802481
vt 1.441375 0.802481
vt 1.496302 0.802481
vt 1.532921 0.802481
vt 1.587849 0.802481
vt 1.001953 0.809337
vt 1.001953 0.802481
vt 1.056881 0.802481
vt 1.093499 0.802481
vt 1.148427 0.802481
vt 1.203355 0.802481
vt 1.239973 0.802481
vt 1.001953 0.833433
vt 1.780991 0.535058
s 1
usemtl cart
f 127/1/1 1/2/2 2/3/2
f 4/4/3 126/5/4 3/6/3
f 123/7/5 128/8/1 127/1/1
f 121/9/6 126/5/4 125/10/4
f 119/11/7 124/12/5 123/7/5
f 117/13/8 122/14/6 121/9/6
f 115/15/9 120/16/7 119/11/7
f 113/17/10 118/18/8 117/13/8
f 111/19/11 116/20/9 115/15/9
f 109/21/12 114/22/10 113/17/10
f 107/23/13 112/24/11 111/19/11
f 105/25/14 110/26/12 109/21/12
f 107/23/13 104/27/15 108/28/13
f 101/29/16 106/30/14 105/25/14
f 103/31/15 100/32/17 104/27/15
f 97/33/18 102/34/16 101/29/16
f 95/35/19 100/32/17 99/36/17
f 93/37/20 98/38/18 97/33/18
f 91/39/21 96/40/19 95/35/19
f 89/41/22 94/42/20 93/37/20
f 87/43/23 92/44/21 91/39/21
f 85/45/24 90/46/22 89/41/22
f 83/47/25 88/48/23 87/43/23
f 81/49/26 86/50/24 85/45/24
f 79/51/27 84/52/25 83/47/25
f 77/53/28 82/54/26 81/49/26
f 75/55/29 80/56/27 79/51/27
f 73/57/30 78/58/28 77/53/28
f 71/59/31 76/60/29 75/55/29
f 69/61/32 74/62/30 73/57/30
f 71/59/31 68/63/33 72/64/31
f 65/65/34 70/66/32 69/61/32
f 63/67/35 68/68/33 67/69/33
f 61/70/36 66/71/34 65/72/34
f 59/73/37 64/74/35 63/67/35
f 57/75/38 62/76/36 61/70/36
f 55/77/39 60/78/37 59/73/37
f 53/79/40 58/80/38 57/75/38
f 55/77/39 52/81/41 56/82/39
f 49/83/42 54/84/40 53/79/40
f 47/85/43 52/81/41 51/86/41
f 45/87/44 50/88/42 49/83/42
f 43/89/45 48/90/43 47/85/43
f 41/91/46 46/92/44 45/87/44
f 39/93/47 44/94/45 43/89/45
f 37/95/48 42/96/46 41/91/46
f 39/93/47 36/97/49 40/98/47
f 33/99/50 38/100/48 37/95/48
f 31/101/51 36/97/49 35/102/49
f 29/103/52 34/104/50 33/99/50
f 31/101/51 28/105/53 32/106/51
f 25/107/54 30/108/52 29/103/52
f 27/109/53 24/110/55 28/105/53
f 21/111/56 26/112/54 25/107/54
f 23/113/55 20/114/57 24/110/55
f 17/115/58 22/116/56 21/111/56
f 15/117/59 20/114/57 19/118/57
f 13/119/60 18/120/58 17/115/58
f 11/121/61 16/122/59 15/117/59
f 13/119/60 10/123/62 14/124/60
f 11/121/61 8/125/63 12/126/61
f 5/127/64 10/123/62 9/128/62
f 7/129/63 1/2/2 8/125/63
f 4/4/3 6/130/64 5/127/64
f 127/131/65 130/132/66 255/133/65
f 128/134/67 129/135/68 1/136/68
f 125/137/69 132/138/70 253/139/69
f 126/140/71 131/141/72 3/142/72
f 123/143/73 255/133/65 251/144/73
f 128/134/67 252/145/74 256/146/67
f 121/147/75 253/139/69 249/148/75
f 122/149/76 254/150/71 126/140/71
f 123/143/73 247/151/77 119/152/77
f 124/153/74 248/154/78 252/145/74
f 121/147/75 245/155/79 117/156/79
f 118/157/80 250/158/76 122/149/76
f 115/159/81 247/151/77 243/160/81
f 120/161/78 244/162/82 248/154/78
f 113/163/83 245/155/79 241/164/83
f 114/165/84 246/166/80 118/157/80
f 115/159/81 239/167/85 111/168/85
f 116/169/82 240/170/86 244/162/82
f 109/171/87 241/164/83 237/172/87
f 114/165/84 238/173/88 242/174/84
f 107/175/89 239/167/85 235/176/89
f 108/177/90 240/170/86 112/178/86
f 105/179/91 237/172/87 233/180/91
f 106/181/92 238/173/88 110/182/88
f 107/175/89 231/183/93 103/184/93
f 104/185/94 236/186/90 108/177/90
f 105/179/91 229/187/95 101/188/95
f 106/181/92 230/189/96 234/190/92
f 103/184/93 227/191/97 99/192/97
f 104/185/94 228/193/98 232/194/94
f 101/188/95 225/195/99 97/196/99
f 102/197/96 226/198/100 230/189/96
f 99/192/97 223/199/101 95/200/101
f 96/201/102 228/193/98 100/202/98
f 93/203/103 225/195/99 221/204/103
f 94/205/104 226/198/100 98/206/100
f 95/200/101 219/207/105 91/208/105
f 96/201/102 220/209/106 224/210/102
f 93/203/103 217/211/107 89/212/107
f 90/213/108 222/214/104 94/205/104
f 91/208/105 215/215/109 87/216/109
f 92/217/106 216/218/110 220/209/106
f 89/212/107 213/219/111 85/220/111
f 86/221/112 218/222/108 90/213/108
f 83/223/113 215/215/109 211/224/113
f 88/225/110 212/226/114 216/218/110
f 81/227/115 213/219/111 209/228/115
f 82/229/116 214/230/112 86/221/112
f 83/223/113 207/231/117 79/232/117
f 84/233/114 208/234/118 212/226/114
f 77/235/119 209/228/115 205/236/119
f 82/229/116 206/237/120 210/238/116
f 79/232/117 203/239/121 75/240/121
f 76/241/122 208/234/118 80/242/118
f 73/243/123 205/236/119 201/244/123
f 74/245/124 206/237/120 78/246/120
f 75/240/121 199/247/125 71/248/125
f 72/249/126 204/250/122 76/241/122
f 69/251/127 201/244/123 197/252/127
f 74/245/124 198/253/128 202/254/124
f 71/248/125 195/255/70 67/256/70
f 72/249/126 196/257/72 200/258/126
f 69/251/127 193/259/66 65/260/66
f 70/261/128 194/262/68 198/253/128
f 63/263/69 195/264/70 191/265/69
f 64/266/71 196/267/72 68/268/72
f 61/269/65 193/270/66 189/271/65
f 62/272/67 194/273/68 66/274/68
f 59/275/75 191/265/69 187/276/75
f 60/277/76 192/278/71 64/266/71
f 61/269/65 185/279/73 57/280/73
f 58/281/74 190/282/67 62/272/67
f 59/275/75 183/283/79 55/284/79
f 56/285/80 188/286/76 60/277/76
f 53/287/77 185/279/73 181/288/77
f 58/281/74 182/289/78 186/290/74
f 55/284/79 179/291/83 51/292/83
f 56/285/80 180/293/84 184/294/80
f 53/287/77 177/295/81 49/296/81
f 54/297/78 178/298/82 182/289/78
f 47/299/87 179/291/83 175/300/87
f 48/301/88 180/293/84 52/302/84
f 45/303/85 177/295/81 173/304/85
f 50/305/82 174/306/86 178/298/82
f 47/299/87 171/307/91 43/308/91
f 44/309/92 176/310/88 48/301/88
f 45/303/85 169/311/89 41/312/89
f 46/313/86 170/314/90 174/306/86
f 43/308/91 167/315/95 39/316/95
f 40/317/96 172/318/92 44/309/92
f 41/312/89 165/319/93 37/320/93
f 42/321/90 166/322/94 170/314/90
f 39/316/95 163/323/99 35/324/99
f 40/317/96 164/325/100 168/326/96
f 37/320/93 161/327/97 33/328/97
f 38/329/94 162/330/98 166/322/94
f 35/324/99 159/331/103 31/332/103
f 32/333/104 164/325/100 36/334/100
f 29/335/101 161/327/97 157/336/101
f 30/337/102 162/330/98 34/338/98
f 31/332/103 155/339/107 27/340/107
f 32/333/104 156/341/108 160/342/104
f 29/335/101 153/343/105 25/344/105
f 26/345/106 158/346/102 30/337/102
f 23/347/111 155/339/107 151/348/111
f 24/349/112 156/341/108 28/350/108
f 25/344/105 149/351/109 21/352/109
f 22/353/110 154/354/106 26/345/106
f 19/355/115 151/348/111 147/356/115
f 24/349/112 148/357/116 152/358/112
f 21/352/109 145/359/113 17/360/113
f 22/353/110 146/361/114 150/362/110
f 15/363/119 147/356/115 143/364/119
f 16/365/120 148/357/116 20/366/116
f 13/367/117 145/359/113 141/368/117
f 14/369/118 146/361/114 18/370/114
f 11/371/123 143/364/119 139/372/123
f 12/373/124 144/374/120 16/365/120
f 13/367/117 137/375/121 9/376/121
f 10/377/122 142/378/118 14/369/118
f 11/371/123 135/379/127 7/380/127
f 8/381/128 140/382/124 12/373/124
f 9/376/121 133/383/125 5/384/125
f 10/377/122 134/385/126 138/386/122
f 7/380/127 130/132/66 2/387/66
f 8/381/128 129/135/68 136/388/128
f 5/384/125 132/138/70 4/389/70
f 6/390/126 131/141/72 134/385/126
f 484/391/129 490/392/130 531/393/131
f 310/394/132 494/395/133 492/396/134
f 316/397/135 495/398/136 494/395/133
f 495/398/136 328/399/137 497/400/138
f 328/399/137 498/401/139 497/400/138
f 334/402/140 499/403/141 498/401/139
f 340/404/142 500/405/143 499/403/141
f 346/406/144 502/407/145 500/405/143
f 502/407/145 358/408/146 503/409/147
f 358/408/146 504/410/148 503/409/147
f 364/411/149 506/412/150 504/410/148
f 370/413/151 507/414/152 506/412/150
f 507/414/152 382/415/153 508/416/154
f 382/415/153 509/417/155 508/416/154
f 388/418/156 511/419/157 509/417/155
f 394/420/158 512/421/159 511/422/157
f 512/421/159 406/423/160 514/424/161
f 406/423/160 516/425/162 514/424/161
f 412/426/163 517/427/164 516/425/162
f 418/428/165 518/429/166 517/427/164
f 518/429/166 430/430/167 519/431/168
f 430/430/167 520/432/169 519/431/168
f 436/433/170 521/434/171 520/432/169
f 442/435/172 523/436/173 521/434/171
f 523/436/173 454/437/174 525/438/175
f 454/437/174 526/439/176 525/438/175
f 460/440/177 528/441/178 526/439/176
f 466/442/179 529/443/180 528/441/178
f 529/443/180 478/444/181 530/445/182
f 478/444/181 531/393/131 530/445/182
f 281/446/183 584/447/184 279/448/184
f 299/449/185 491/450/186 490/392/130
f 297/451/187 597/452/188 296/453/188
f 304/454/189 492/396/134 491/450/186
f 642/455/190 485/456/191 479/457/192
f 641/458/193 479/457/192 473/459/194
f 640/460/195 473/459/194 467/461/196
f 461/462/197 640/460/195 467/461/196
f 639/463/198 461/462/197 455/464/199
f 524/465/200 455/464/199 449/466/201
f 522/467/202 449/466/201 443/468/203
f 638/469/204 443/468/203 437/470/205
f 431/471/206 638/469/204 437/470/205
f 636/472/207 431/471/206 425/473/208
f 635/474/209 425/473/208 419/475/210
f 634/476/211 419/475/210 413/477/212
f 407/478/213 634/476/211 413/477/212
f 513/479/214 407/478/213 401/480/215
f 633/481/216 401/480/215 395/482/217
f 389/483/218 633/484/216 395/485/217
f 632/486/219 389/483/218 383/487/220
f 631/488/221 383/487/220 377/489/222
f 630/490/223 377/489/222 371/491/224
f 365/492/225 630/490/223 371/491/224
f 629/493/226 365/492/225 359/494/227
f 628/495/228 359/494/227 353/496/229
f 347/497/230 628/495/228 353/496/229
f 627/498/231 347/497/230 341/499/232
f 335/500/233 627/498/231 341/499/232
f 625/501/234 335/500/233 329/502/235
f 323/503/236 625/501/234 329/502/235
f 624/504/237 323/503/236 317/505/238
f 311/506/239 624/504/237 317/505/238
f 623/507/240 311/506/239 305/508/241
f 622/509/242 305/508/241 298/510/243
f 485/456/191 300/511/244 489/512/245
f 300/511/244 488/513/246 489/512/245
f 301/514/247 487/515/248 488/513/246
f 302/516/249 486/517/250 487/515/248
f 303/518/251 484/391/129 486/517/250
f 485/456/191 483/519/252 479/457/192
f 489/512/245 482/520/253 483/519/252
f 488/513/246 481/521/254 482/520/253
f 487/515/248 480/522/255 481/521/254
f 486/517/250 478/444/181 480/522/255
f 473/459/194 483/519/252 477/523/256
f 483/519/252 476/524/257 477/523/256
f 482/520/253 475/525/258 476/524/257
f 475/525/258 480/522/255 474/526/259
f 480/522/255 472/527/260 474/526/259
f 473/459/194 471/528/261 467/461/196
f 477/523/256 470/529/262 471/528/261
f 476/524/257 469/530/263 470/529/262
f 475/525/258 468/531/264 469/530/263
f 474/526/259 466/442/179 468/531/264
f 467/461/196 465/532/265 461/462/197
f 471/528/261 464/533/266 465/532/265
f 470/529/262 463/534/267 464/533/266
f 469/530/263 462/535/268 463/534/267
f 462/535/268 466/442/179 460/440/177
f 461/462/197 459/536/269 455/464/199
f 459/536/269 464/533/266 458/537/270
f 464/533/266 457/538/271 458/537/270
f 463/534/267 456/539/272 457/538/271
f 456/539/272 460/440/177 454/437/174
f 455/464/199 453/540/273 449/466/201
f 459/536/269 452/541/274 453/540/273
f 458/537/270 451/542/275 452/541/274
f 457/538/271 450/543/276 451/542/275
f 456/539/272 448/544/277 450/543/276
f 449/466/201 447/545/278 443/468/203
f 453/540/273 446/546/279 447/545/278
f 452/541/274 445/547/280 446/546/279
f 451/542/275 444/548/281 445/547/280
f 444/548/281 448/544/277 442/435/172
f 437/470/205 447/545/278 441/549/282
f 447/545/278 440/550/283 441/549/282
f 446/546/279 439/551/284 440/550/283
f 445/547/280 438/552/285 439/551/284
f 444/548/281 436/433/170 438/552/285
f 437/470/205 435/553/286 431/471/206
f 441/549/282 434/554/287 435/553/286
f 440/550/283 433/555/288 434/554/287
f 439/551/284 432/556/289 433/555/288
f 438/552/285 430/430/167 432/556/289
f 425/473/208 435/553/286 429/557/290
f 435/553/286 428/558/291 429/557/290
f 434/554/287 427/559/292 428/558/291
f 427/559/292 432/556/289 426/560/293
f 432/556/289 424/561/294 426/560/293
f 425/473/208 423/562/295 419/475/210
f 429/557/290 422/563/296 423/562/295
f 428/558/291 421/564/297 422/563/296
f 427/559/292 420/565/298 421/564/297
f 426/560/293 418/428/165 420/565/298
f 419/475/210 417/566/299 413/477/212
f 423/562/295 416/567/300 417/566/299
f 422/563/296 415/568/301 416/567/300
f 421/564/297 414/569/302 415/568/301
f 414/569/302 418/428/165 412/426/163
f 413/477/212 411/570/303 407/478/213
f 411/570/303 416/567/300 410/571/304
f 416/567/300 409/572/305 410/571/304
f 415/568/301 408/573/306 409/572/305
f 408/573/306 412/426/163 406/423/160
f 407/478/213 405/574/307 401/480/215
f 411/570/303 404/575/308 405/574/307
f 410/571/304 403/576/309 404/575/308
f 409/572/305 402/577/310 403/576/309
f 408/573/306 400/578/311 402/577/310
f 401/480/215 399/579/312 395/482/217
f 405/574/307 398/580/313 399/579/312
f 404/575/308 397/581/314 398/580/313
f 403/576/309 396/582/315 397/581/314
f 396/582/315 400/578/311 394/420/158
f 389/483/218 399/583/312 393/584/316
f 399/583/312 392/585/317 393/584/316
f 398/586/313 391/587/318 392/585/317
f 397/588/314 390/589/319 391/587/318
f 396/590/315 388/418/156 390/589/319
f 389/483/218 387/591/320 383/487/220
f 393/584/316 386/592/321 387/591/320
f 392/585/317 385/593/322 386/592/321
f 385/593/322 390/589/319 384/594/323
f 384/594/323 388/418/156 382/415/153
f 383/487/220 381/595/324 377/489/222
f 387/591/320 380/596/325 381/595/324
f 386/592/321 379/597/326 380/596/325
f 385/593/322 378/598/327 379/597/326
f 384/594/323 376/599/328 378/598/327
f 377/489/222 375/600/329 371/491/224
f 381/595/324 374/601/330 375/600/329
f 380/596/325 373/602/331 374/601/330
f 379/597/326 372/603/332 373/602/331
f 372/603/332 376/599/328 370/413/151
f 365/492/225 375/600/329 369/604/333
f 375/600/329 368/605/334 369/604/333
f 374/601/330 367/606/335 368/605/334
f 373/602/331 366/607/336 367/606/335
f 372/603/332 364/411/149 366/607/336
f 365/492/225 363/608/337 359/494/227
f 369/604/333 362/609/338 363/608/337
f 368/605/334 361/610/339 362/609/338
f 361/610/339 366/607/336 360/611/340
f 366/607/336 358/408/146 360/611/340
f 359/494/227 357/612/341 353/496/229
f 363/608/337 356/613/342 357/612/341
f 362/609/338 355/614/343 356/613/342
f 361/610/339 354/615/344 355/614/343
f 360/611/340 352/616/345 354/615/344
f 353/496/229 351/617/346 347/497/230
f 357/612/341 350/618/347 351/617/346
f 356/613/342 349/619/348 350/618/347
f 355/614/343 348/620/349 349/619/348
f 348/620/349 352/616/345 346/406/144
f 341/499/232 351/617/346 345/621/350
f 351/617/346 344/622/351 345/621/350
f 350/618/347 343/623/352 344/622/351
f 349/619/348 342/624/353 343/623/352
f 348/620/349 340/404/142 342/624/353
f 341/499/232 339/625/354 335/500/233
f 345/621/350 338/626/355 339/625/354
f 344/622/351 337/627/356 338/626/355
f 343/623/352 336/628/357 337/627/356
f 342/624/353 334/402/140 336/628/357
f 335/500/233 333/629/358 329/502/235
f 333/629/358 338/626/355 332/630/359
f 338/626/355 331/631/360 332/630/359
f 337/627/356 330/632/361 331/631/360
f 336/628/357 328/399/137 330/632/361
f 329/502/235 327/633/362 323/503/236
f 327/633/362 332/630/359 326/634/363
f 332/630/359 325/635/364 326/634/363
f 331/631/360 324/636/365 325/635/364
f 330/632/361 322/637/366 324/636/365
f 323/503/236 321/638/367 317/505/238
f 321/638/367 326/634/363 320/639/368
f 326/634/363 319/640/369 320/639/368
f 325/635/364 318/641/370 319/640/369
f 324/636/365 316/397/135 318/641/370
f 317/505/238 315/642/371 311/506/239
f 321/638/367 314/643/372 315/642/371
f 320/639/368 313/644/373 314/643/372
f 313/644/373 318/641/370 312/645/374
f 312/645/374 316/397/135 310/394/132
f 305/508/241 315/642/371 309/646/375
f 315/642/371 308/647/376 309/646/375
f 314/643/372 307/648/377 308/647/376
f 313/644/373 306/649/378 307/648/377
f 312/645/374 304/454/189 306/649/378
f 305/508/241 300/511/244 298/510/243
f 309/646/375 301/514/247 300/511/244
f 308/647/376 302/516/249 301/514/247
f 307/648/377 303/518/251 302/516/249
f 303/518/251 304/454/189 299/449/185
f 485/456/191 622/509/242 298/510/243
f 257/650/379 491/651/379 258/652/379
f 599/653/380 532/654/380 621/655/380
f 258/652/379 492/656/379 259/657/379
f 532/654/380 620/658/380 621/655/380
f 260/659/379 492/656/379 494/660/379
f 642/661/380 295/662/380 620/658/380
f 260/659/379 495/663/379 261/664/379
f 295/662/380 640/665/380 619/666/380
f 262/667/379 495/663/379 497/668/379
f 640/665/380 292/669/380 619/666/380
f 262/667/379 498/670/379 264/671/379
f 292/669/380 639/672/380 290/673/380
f 264/671/379 499/674/379 265/675/379
f 639/672/380 618/676/380 290/673/380
f 265/675/379 500/677/379 267/678/379
f 524/679/380 617/680/380 618/676/380
f 267/678/379 502/681/379 269/682/379
f 617/680/380 638/683/380 616/684/380
f 269/682/379 503/685/379 270/686/379
f 638/683/380 615/687/380 616/684/380
f 271/688/379 503/685/379 504/689/379
f 637/690/380 614/691/380 615/687/380
f 271/688/379 506/692/379 273/693/379
f 614/691/380 635/694/380 613/695/380
f 274/696/379 506/692/379 507/697/379
f 635/694/380 612/698/380 613/695/380
f 274/696/379 508/699/379 276/700/379
f 612/698/380 515/701/380 611/702/380
f 276/700/379 509/703/379 277/704/379
f 515/701/380 280/705/380 611/702/380
f 277/704/379 511/706/379 278/707/379
f 513/708/380 610/709/380 280/705/380
f 278/710/379 512/711/379 279/712/379
f 610/713/380 510/714/380 609/715/380
f 279/712/379 514/716/379 281/717/379
f 510/714/380 608/718/380 609/715/380
f 282/719/379 514/716/379 516/720/379
f 632/721/380 275/722/380 608/718/380
f 282/719/379 517/723/379 283/724/379
f 275/722/380 630/725/380 607/726/380
f 284/727/379 517/723/379 518/728/379
f 630/725/380 272/729/380 607/726/380
f 284/727/379 519/730/379 285/731/379
f 272/729/380 629/732/380 606/733/380
f 285/731/379 520/734/379 286/735/379
f 629/732/380 605/736/380 606/733/380
f 286/735/379 521/737/379 287/738/379
f 628/739/380 268/740/380 605/736/380
f 287/738/379 523/741/379 288/742/379
f 268/740/380 627/743/380 266/744/380
f 288/742/379 525/745/379 289/746/379
f 627/743/380 604/747/380 266/744/380
f 291/748/379 525/745/379 526/749/379
f 626/750/380 263/751/380 604/747/380
f 291/748/379 528/752/379 293/753/379
f 263/751/380 496/754/380 603/755/380
f 294/756/379 528/752/379 529/757/379
f 496/754/380 602/758/380 603/755/380
f 294/756/379 530/759/379 296/760/379
f 602/758/380 493/761/380 601/762/380
f 296/760/379 531/763/379 297/764/379
f 493/761/380 600/765/380 601/762/380
f 297/764/379 490/766/379 257/650/379
f 623/767/380 599/653/380 600/765/380
f 262/768/381 571/769/382 261/770/382
f 620/771/188 566/772/187 621/773/187
f 611/774/183 552/775/184 553/776/183
f 603/777/382 540/778/381 263/779/381
f 257/780/383 598/781/187 297/451/187
f 282/782/384 585/783/183 281/446/183
f 264/784/385 572/785/381 262/768/381
f 621/773/187 536/786/383 599/787/383
f 611/774/183 554/788/384 612/789/384
f 604/790/385 540/778/381 541/791/385
f 283/792/386 586/793/384 282/782/384
f 265/794/387 573/795/385 264/784/385
f 612/789/384 555/796/386 613/797/386
f 604/790/385 542/798/387 266/799/387
f 284/800/388 587/801/386 283/792/386
f 267/802/389 574/803/387 265/794/387
f 613/797/386 556/804/388 614/805/388
f 266/799/387 543/806/389 268/807/389
f 285/808/390 588/809/388 284/800/388
f 269/810/391 575/811/389 267/802/389
f 614/805/388 557/812/390 615/813/390
f 605/814/391 543/806/389 544/815/391
f 286/816/392 589/817/390 285/808/390
f 270/818/393 576/819/391 269/810/391
f 615/813/390 558/820/392 616/821/392
f 605/814/391 545/822/393 606/823/393
f 287/824/394 590/825/392 286/816/392
f 271/826/395 577/827/393 270/818/393
f 616/821/392 559/828/394 617/829/394
f 606/823/393 546/830/395 272/831/395
f 288/832/396 591/833/394 287/824/394
f 273/834/397 578/835/395 271/826/395
f 617/829/394 560/836/396 618/837/396
f 607/838/397 546/830/395 547/839/397
f 289/840/398 592/841/396 288/832/396
f 274/842/399 579/843/397 273/834/397
f 618/837/396 561/844/398 290/845/398
f 607/838/397 548/846/399 275/847/399
f 291/848/400 593/849/398 289/840/398
f 276/850/401 580/851/399 274/842/399
f 258/852/402 567/853/383 257/780/383
f 290/845/398 562/854/400 292/855/400
f 608/856/401 548/846/399 549/857/401
f 599/787/383 535/858/402 600/859/402
f 293/860/403 594/861/400 291/848/400
f 277/862/404 581/863/401 276/850/401
f 259/864/405 568/865/402 258/852/402
f 619/866/403 562/854/400 563/867/403
f 608/856/401 550/868/404 609/869/404
f 600/859/402 537/870/405 601/871/405
f 294/872/406 595/873/403 293/860/403
f 278/874/407 582/875/404 277/862/404
f 260/876/408 569/877/405 259/864/405
f 619/866/403 564/878/406 295/879/406
f 610/880/407 550/868/404 551/881/407
f 601/871/405 538/882/408 602/883/408
f 296/453/188 596/884/406 294/872/406
f 279/448/184 583/885/407 278/886/407
f 261/770/382 570/887/408 260/876/408
f 620/771/188 564/878/406 565/888/188
f 610/889/407 552/775/184 280/890/184
f 602/883/408 539/891/382 603/777/382
f 534/892/380 535/893/380 536/894/380
f 534/892/380 537/895/380 535/893/380
f 534/892/380 538/896/380 537/895/380
f 534/892/380 539/897/380 538/896/380
f 534/892/380 540/898/380 539/897/380
f 534/892/380 541/899/380 540/898/380
f 534/892/380 542/900/380 541/899/380
f 534/892/380 543/901/380 542/900/380
f 534/892/380 544/902/380 543/901/380
f 534/892/380 545/903/380 544/902/380
f 534/892/380 546/904/380 545/903/380
f 534/892/380 547/905/380 546/904/380
f 534/892/380 548/906/380 547/905/380
f 534/892/380 549/907/380 548/906/380
f 534/892/380 550/908/380 549/907/380
f 534/892/380 551/909/380 550/908/380
f 534/892/380 552/910/380 551/909/380
f 534/892/380 553/911/380 552/910/380
f 534/892/380 554/912/380 553/911/380
f 534/892/380 555/913/380 554/912/380
f 534/892/380 556/914/380 555/913/380
f 534/892/380 557/915/380 556/914/380
f 534/892/380 558/916/380 557/915/380
f 534/892/380 559/917/380 558/916/380
f 534/892/380 560/918/380 559/917/380
f 534/892/380 561/919/380 560/918/380
f 534/892/380 562/920/380 561/919/380
f 534/892/380 563/921/380 562/920/380
f 534/892/380 564/922/380 563/921/380
f 534/892/380 565/923/380 564/922/380
f 534/892/380 566/924/380 565/923/380
f 534/892/380 536/894/380 566/924/380
f 533/925/379 567/926/379 568/927/379
f 533/925/379 568/927/379 569/928/379
f 533/925/379 569/928/379 570/929/379
f 533/925/379 570/929/379 571/930/379
f 533/925/379 571/930/379 572/931/379
f 533/925/379 572/931/379 573/932/379
f 533/925/379 573/932/379 574/933/379
f 533/925/379 574/933/379 575/934/379
f 533/925/379 575/934/379 576/935/379
f 533/925/379 576/935/379 577/936/379
f 533/925/379 577/936/379 578/937/379
f 533/925/379 578/937/379 579/938/379
f 533/925/379 579/938/379 580/939/379
f 533/925/379 580/939/379 581/940/379
f 533/925/379 581/940/379 582/941/379
f 533/925/379 582/941/379 583/942/379
f 533/925/379 583/942/379 584/943/379
f 533/925/379 584/943/379 585/944/379
f 533/925/379 585/944/379 586/945/379
f 533/925/379 586/945/379 587/946/379
f 533/925/379 587/946/379 588/947/379
f 533/925/379 588/947/379 589/948/379
f 533/925/379 589/948/379 590/949/379
f 533/925/379 590/949/379 591/950/379
f 533/925/379 591/950/379 592/951/379
f 533/925/379 592/951/379 593/952/379
f 533/925/379 593/952/379 594/953/379
f 533/925/379 594/953/379 595/954/379
f 533/925/379 595/954/379 596/955/379
f 533/925/379 596/955/379 597/956/379
f 533/925/379 597/956/379 598/957/379
f 533/925/379 598/957/379 567/926/379
f 127/1/1 128/8/1 1/2/2
f 4/4/3 125/10/4 126/5/4
f 123/7/5 124/12/5 128/8/1
f 121/9/6 122/14/6 126/5/4
f 119/11/7 120/16/7 124/12/5
f 117/13/8 118/18/8 122/14/6
f 115/15/9 116/20/9 120/16/7
f 113/17/10 114/22/10 118/18/8
f 111/19/11 112/24/11 116/20/9
f 109/21/12 110/26/12 114/22/10
f 107/23/13 108/28/13 112/24/11
f 105/25/14 106/30/14 110/26/12
f 107/23/13 103/31/15 104/27/15
f 101/29/16 102/34/16 106/30/14
f 103/31/15 99/36/17 100/32/17
f 97/33/18 98/38/18 102/34/16
f 95/35/19 96/40/19 100/32/17
f 93/37/20 94/42/20 98/38/18
f 91/39/21 92/44/21 96/40/19
f 89/41/22 90/46/22 94/42/20
f 87/43/23 88/48/23 92/44/21
f 85/45/24 86/50/24 90/46/22
f 83/47/25 84/52/25 88/48/23
f 81/49/26 82/54/26 86/50/24
f 79/51/27 80/56/27 84/52/25
f 77/53/28 78/58/28 82/54/26
f 75/55/29 76/60/29 80/56/27
f 73/57/30 74/62/30 78/58/28
f 71/59/31 72/64/31 76/60/29
f 69/61/32 70/66/32 74/62/30
f 71/59/31 67/958/33 68/63/33
f 65/65/34 66/959/34 70/66/32
f 63/67/35 64/74/35 68/68/33
f 61/70/36 62/76/36 66/71/34
f 59/73/37 60/78/37 64/74/35
f 57/75/38 58/80/38 62/76/36
f 55/77/39 56/82/39 60/78/37
f 53/79/40 54/84/40 58/80/38
f 55/77/39 51/86/41 52/81/41
f 49/83/42 50/88/42 54/84/40
f 47/85/43 48/90/43 52/81/41
f 45/87/44 46/92/44 50/88/42
f 43/89/45 44/94/45 48/90/43
f 41/91/46 42/96/46 46/92/44
f 39/93/47 40/98/47 44/94/45
f 37/95/48 38/100/48 42/96/46
f 39/93/47 35/102/49 36/97/49
f 33/99/50 34/104/50 38/100/48
f 31/101/51 32/106/51 36/97/49
f 29/103/52 30/108/52 34/104/50
f 31/101/51 27/109/53 28/105/53
f 25/107/54 26/112/54 30/108/52
f 27/109/53 23/113/55 24/110/55
f 21/111/56 22/116/56 26/112/54
f 23/113/55 19/118/57 20/114/57
f 17/115/58 18/120/58 22/116/56
f 15/117/59 16/122/59 20/114/57
f 13/119/60 14/124/60 18/120/58
f 11/121/61 12/126/61 16/122/59
f 13/119/60 9/128/62 10/123/62
f 11/121/61 7/129/63 8/125/63
f 5/127/64 6/130/64 10/123/62
f 7/129/63 2/3/2 1/2/2
f 4/4/3 3/6/3 6/130/64
f 127/131/65 2/387/66 130/132/66
f 128/134/67 256/146/67 129/135/68
f 125/137/69 4/389/70 132/138/70
f 126/140/71 254/150/71 131/141/72
f 123/143/73 127/131/65 255/133/65
f 128/134/67 124/153/74 252/145/74
f 121/147/75 125/137/69 253/139/69
f 122/149/76 250/158/76 254/150/71
f 123/143/73 251/144/73 247/151/77
f 124/153/74 120/161/78 248/154/78
f 121/147/75 249/148/75 245/155/79
f 118/157/80 246/166/80 250/158/76
f 115/159/81 119/152/77 247/151/77
f 120/161/78 116/169/82 244/162/82
f 113/163/83 117/156/79 245/155/79
f 114/165/84 242/174/84 246/166/80
f 115/159/81 243/160/81 239/167/85
f 116/169/82 112/178/86 240/170/86
f 109/171/87 113/163/83 241/164/83
f 114/165/84 110/182/88 238/173/88
f 107/175/89 111/168/85 239/167/85
f 108/177/90 236/186/90 240/170/86
f 105/179/91 109/171/87 237/172/87
f 106/181/92 234/190/92 238/173/88
f 107/175/89 235/176/89 231/183/93
f 104/185/94 232/194/94 236/186/90
f 105/179/91 233/180/91 229/187/95
f 106/181/92 102/197/96 230/189/96
f 103/184/93 231/183/93 227/191/97
f 104/185/94 100/202/98 228/193/98
f 101/188/95 229/187/95 225/195/99
f 102/197/96 98/206/100 226/198/100
f 99/192/97 227/191/97 223/199/101
f 96/201/102 224/210/102 228/193/98
f 93/203/103 97/196/99 225/195/99
f 94/205/104 222/214/104 226/198/100
f 95/200/101 223/199/101 219/207/105
f 96/201/102 92/217/106 220/209/106
f 93/203/103 221/204/103 217/211/107
f 90/213/108 218/222/108 222/214/104
f 91/208/105 219/207/105 215/215/109
f 92/217/106 88/225/110 216/218/110
f 89/212/107 217/211/107 213/219/111
f 86/221/112 214/230/112 218/222/108
f 83/223/113 87/216/109 215/215/109
f 88/225/110 84/233/114 212/226/114
f 81/227/115 85/220/111 213/219/111
f 82/229/116 210/238/116 214/230/112
f 83/223/113 211/224/113 207/231/117
f 84/233/114 80/242/118 208/234/118
f 77/235/119 81/227/115 209/228/115
f 82/229/116 78/246/120 206/237/120
f 79/232/117 207/231/117 203/239/121
f 76/241/122 204/250/122 208/234/118
f 73/243/123 77/235/119 205/236/119
f 74/245/124 202/254/124 206/237/120
f 75/240/121 203/239/121 199/247/125
f 72/249/126 200/258/126 204/250/122
f 69/251/127 73/243/123 201/244/123
f 74/245/124 70/261/128 198/253/128
f 71/248/125 199/247/125 195/255/70
f 72/249/126 68/960/72 196/257/72
f 69/251/127 197/252/127 193/259/66
f 70/261/128 66/961/68 194/262/68
f 63/263/69 67/962/70 195/264/70
f 64/266/71 192/278/71 196/267/72
f 61/269/65 65/963/66 193/270/66
f 62/272/67 190/282/67 194/273/68
f 59/275/75 63/263/69 191/265/69
f 60/277/76 188/286/76 192/278/71
f 61/269/65 189/271/65 185/279/73
f 58/281/74 186/290/74 190/282/67
f 59/275/75 187/276/75 183/283/79
f 56/285/80 184/294/80 188/286/76
f 53/287/77 57/280/73 185/279/73
f 58/281/74 54/297/78 182/289/78
f 55/284/79 183/283/79 179/291/83
f 56/285/80 52/302/84 180/293/84
f 53/287/77 181/288/77 177/295/81
f 54/297/78 50/305/82 178/298/82
f 47/299/87 51/292/83 179/291/83
f 48/301/88 176/310/88 180/293/84
f 45/303/85 49/296/81 177/295/81
f 50/305/82 46/313/86 174/306/86
f 47/299/87 175/300/87 171/307/91
f 44/309/92 172/318/92 176/310/88
f 45/303/85 173/304/85 169/311/89
f 46/313/86 42/321/90 170/314/90
f 43/308/91 171/307/91 167/315/95
f 40/317/96 168/326/96 172/318/92
f 41/312/89 169/311/89 165/319/93
f 42/321/90 38/329/94 166/322/94
f 39/316/95 167/315/95 163/323/99
f 40/317/96 36/334/100 164/325/100
f 37/320/93 165/319/93 161/327/97
f 38/329/94 34/338/98 162/330/98
f 35/324/99 163/323/99 159/331/103
f 32/333/104 160/342/104 164/325/100
f 29/335/101 33/328/97 161/327/97
f 30/337/102 158/346/102 162/330/98
f 31/332/103 159/331/103 155/339/107
f 32/333/104 28/350/108 156/341/108
f 29/335/101 157/336/101 153/343/105
f 26/345/106 154/354/106 158/346/102
f 23/347/111 27/340/107 155/339/107
f 24/349/112 152/358/112 156/341/108
f 25/344/105 153/343/105 149/351/109
f 22/353/110 150/362/110 154/354/106
f 19/355/115 23/347/111 151/348/111
f 24/349/112 20/366/116 148/357/116
f 21/352/109 149/351/109 145/359/113
f 22/353/110 18/370/114 146/361/114
f 15/363/119 19/355/115 147/356/115
f 16/365/120 144/374/120 148/357/116
f 13/367/117 17/360/113 145/359/113
f 14/369/118 142/378/118 146/361/114
f 11/371/123 15/363/119 143/364/119
f 12/373/124 140/382/124 144/374/120
f 13/367/117 141/368/117 137/375/121
f 10/377/122 138/386/122 142/378/118
f 11/371/123 139/372/123 135/379/127
f 8/381/128 136/388/128 140/382/124
f 9/376/121 137/375/121 133/383/125
f 10/377/122 6/390/126 134/385/126
f 7/380/127 135/379/127 130/132/66
f 8/381/128 1/136/68 129/135/68
f 5/384/125 133/383/125 132/138/70
f 6/390/126 3/142/72 131/141/72
f 484/391/129 299/449/185 490/392/130
f 310/394/132 316/397/135 494/395/133
f 316/397/135 322/637/366 495/398/136
f 495/398/136 322/637/366 328/399/137
f 328/399/137 334/402/140 498/401/139
f 334/402/140 340/404/142 499/403/141
f 340/404/142 346/406/144 500/405/143
f 346/406/144 352/616/345 502/407/145
f 502/407/145 352/616/345 358/408/146
f 358/408/146 364/411/149 504/410/148
f 364/411/149 370/413/151 506/412/150
f 370/413/151 376/599/328 507/414/152
f 507/414/152 376/599/328 382/415/153
f 382/415/153 388/418/156 509/417/155
f 388/418/156 394/964/158 511/419/157
f 394/420/158 400/578/311 512/421/159
f 512/421/159 400/578/311 406/423/160
f 406/423/160 412/426/163 516/425/162
f 412/426/163 418/428/165 517/427/164
f 418/428/165 424/561/294 518/429/166
f 518/429/166 424/561/294 430/430/167
f 430/430/167 436/433/170 520/432/169
f 436/433/170 442/435/172 521/434/171
f 442/435/172 448/544/277 523/436/173
f 523/436/173 448/544/277 454/437/174
f 454/437/174 460/440/177 526/439/176
f 460/440/177 466/442/179 528/441/178
f 466/442/179 472/527/260 529/443/180
f 529/443/180 472/527/260 478/444/181
f 478/444/181 484/391/129 531/393/131
f 281/446/183 585/783/183 584/447/184
f 299/449/185 304/454/189 491/450/186
f 297/451/187 598/781/187 597/452/188
f 304/454/189 310/394/132 492/396/134
f 642/455/190 532/965/409 485/456/191
f 641/458/193 642/455/190 479/457/192
f 640/460/195 641/458/193 473/459/194
f 461/462/197 527/966/410 640/460/195
f 639/463/198 527/966/410 461/462/197
f 524/465/200 639/463/198 455/464/199
f 522/467/202 524/465/200 449/466/201
f 638/469/204 522/467/202 443/468/203
f 431/471/206 637/967/411 638/469/204
f 636/472/207 637/967/411 431/471/206
f 635/474/209 636/472/207 425/473/208
f 634/476/211 635/474/209 419/475/210
f 407/478/213 515/968/412 634/476/211
f 513/479/214 515/968/412 407/478/213
f 633/481/216 513/479/214 401/480/215
f 389/483/218 510/969/413 633/484/216
f 632/486/219 510/969/413 389/483/218
f 631/488/221 632/486/219 383/487/220
f 630/490/223 631/488/221 377/489/222
f 365/492/225 505/970/414 630/490/223
f 629/493/226 505/970/414 365/492/225
f 628/495/228 629/493/226 359/494/227
f 347/497/230 501/971/415 628/495/228
f 627/498/231 501/971/415 347/497/230
f 335/500/233 626/972/416 627/498/231
f 625/501/234 626/972/416 335/500/233
f 323/503/236 496/973/417 625/501/234
f 624/504/237 496/973/417 323/503/236
f 311/506/239 493/974/418 624/504/237
f 623/507/240 493/974/418 311/506/239
f 622/509/242 623/507/240 305/508/241
f 485/456/191 298/510/243 300/511/244
f 300/511/244 301/514/247 488/513/246
f 301/514/247 302/516/249 487/515/248
f 302/516/249 303/518/251 486/517/250
f 303/518/251 299/449/185 484/391/129
f 485/456/191 489/512/245 483/519/252
f 489/512/245 488/513/246 482/520/253
f 488/513/246 487/515/248 481/521/254
f 487/515/248 486/517/250 480/522/255
f 486/517/250 484/391/129 478/444/181
f 473/459/194 479/457/192 483/519/252
f 483/519/252 482/520/253 476/524/257
f 482/520/253 481/521/254 475/525/258
f 475/525/258 481/521/254 480/522/255
f 480/522/255 478/444/181 472/527/260
f 473/459/194 477/523/256 471/528/261
f 477/523/256 476/524/257 470/529/262
f 476/524/257 475/525/258 469/530/263
f 475/525/258 474/526/259 468/531/264
f 474/526/259 472/527/260 466/442/179
f 467/461/196 471/528/261 465/532/265
f 471/528/261 470/529/262 464/533/266
f 470/529/262 469/530/263 463/534/267
f 469/530/263 468/531/264 462/535/268
f 462/535/268 468/531/264 466/442/179
f 461/462/197 465/532/265 459/536/269
f 459/536/269 465/532/265 464/533/266
f 464/533/266 463/534/267 457/538/271
f 463/534/267 462/535/268 456/539/272
f 456/539/272 462/535/268 460/440/177
f 455/464/199 459/536/269 453/540/273
f 459/536/269 458/537/270 452/541/274
f 458/537/270 457/538/271 451/542/275
f 457/538/271 456/539/272 450/543/276
f 456/539/272 454/437/174 448/544/277
f 449/466/201 453/540/273 447/545/278
f 453/540/273 452/541/274 446/546/279
f 452/541/274 451/542/275 445/547/280
f 451/542/275 450/543/276 444/548/281
f 444/548/281 450/543/276 448/544/277
f 437/470/205 443/468/203 447/545/278
f 447/545/278 446/546/279 440/550/283
f 446/546/279 445/547/280 439/551/284
f 445/547/280 444/548/281 438/552/285
f 444/548/281 442/435/172 436/433/170
f 437/470/205 441/549/282 435/553/286
f 441/549/282 440/550/283 434/554/287
f 440/550/283 439/551/284 433/555/288
f 439/551/284 438/552/285 432/556/289
f 438/552/285 436/433/170 430/430/167
f 425/473/208 431/471/206 435/553/286
f 435/553/286 434/554/287 428/558/291
f 434/554/287 433/555/288 427/559/292
f 427/559/292 433/555/288 432/556/289
f 432/556/289 430/430/167 424/561/294
f 425/473/208 429/557/290 423/562/295
f 429/557/290 428/558/291 422/563/296
f 428/558/291 427/559/292 421/564/297
f 427/559/292 426/560/293 420/565/298
f 426/560/293 424/561/294 418/428/165
f 419/475/210 423/562/295 417/566/299
f 423/562/295 422/563/296 416/567/300
f 422/563/296 421/564/297 415/568/301
f 421/564/297 420/565/298 414/569/302
f 414/569/302 420/565/298 418/428/165
f 413/477/212 417/566/299 411/570/303
f 411/570/303 417/566/299 416/567/300
f 416/567/300 415/568/301 409/572/305
f 415/568/301 414/569/302 408/573/306
f 408/573/306 414/569/302 412/426/163
f 407/478/213 411/570/303 405/574/307
f 411/570/303 410/571/304 404/575/308
f 410/571/304 409/572/305 403/576/309
f 409/572/305 408/573/306 402/577/310
f 408/573/306 406/423/160 400/578/311
f 401/480/215 405/574/307 399/579/312
f 405/574/307 404/575/308 398/580/313
f 404/575/308 403/576/309 397/581/314
f 403/576/309 402/577/310 396/582/315
f 396/582/315 402/577/310 400/578/311
f 389/483/218 395/485/217 399/583/312
f 399/583/312 398/586/313 392/585/317
f 398/586/313 397/588/314 391/587/318
f 397/588/314 396/590/315 390/589/319
f 396/590/315 394/964/158 388/418/156
f 389/483/218 393/584/316 387/591/320
f 393/584/316 392/585/317 386/592/321
f 392/585/317 391/587/318 385/593/322
f 385/593/322 391/587/318 390/589/319
f 384/594/323 390/589/319 388/418/156
f 383/487/220 387/591/320 381/595/324
f 387/591/320 386/592/321 380/596/325
f 386/592/321 385/593/322 379/597/326
f 385/593/322 384/594/323 378/598/327
f 384/594/323 382/415/153 376/599/328
f 377/489/222 381/595/324 375/600/329
f 381/595/324 380/596/325 374/601/330
f 380/596/325 379/597/326 373/602/331
f 379/597/326 378/598/327 372/603/332
f 372/603/332 378/598/327 376/599/328
f 365/492/225 371/491/224 375/600/329
f 375/600/329 374/601/330 368/605/334
f 374/601/330 373/602/331 367/606/335
f 373/602/331 372/603/332 366/607/336
f 372/603/332 370/413/151 364/411/149
f 365/492/225 369/604/333 363/608/337
f 369/604/333 368/605/334 362/609/338
f 368/605/334 367/606/335 361/610/339
f 361/610/339 367/606/335 366/607/336
f 366/607/336 364/411/149 358/408/146
f 359/494/227 363/608/337 357/612/341
f 363/608/337 362/609/338 356/613/342
f 362/609/338 361/610/339 355/614/343
f 361/610/339 360/611/340 354/615/344
f 360/611/340 358/408/146 352/616/345
f 353/496/229 357/612/341 351/617/346
f 357/612/341 356/613/342 350/618/347
f 356/613/342 355/614/343 349/619/348
f 355/614/343 354/615/344 348/620/349
f 348/620/349 354/615/344 352/616/345
f 341/499/232 347/497/230 351/617/346
f 351/617/346 350/618/347 344/622/351
f 350/618/347 349/619/348 343/623/352
f 349/619/348 348/620/349 342/624/353
f 348/620/349 346/406/144 340/404/142
f 341/499/232 345/621/350 339/625/354
f 345/621/350 344/622/351 338/626/355
f 344/622/351 343/623/352 337/627/356
f 343/623/352 342/624/353 336/628/357
f 342/624/353 340/404/142 334/402/140
f 335/500/233 339/625/354 333/629/358
f 333/629/358 339/625/354 338/626/355
f 338/626/355 337/627/356 331/631/360
f 337/627/356 336/628/357 330/632/361
f 336/628/357 334/402/140 328/399/137
f 329/502/235 333/629/358 327/633/362
f 327/633/362 333/629/358 332/630/359
f 332/630/359 331/631/360 325/635/364
f 331/631/360 330/632/361 324/636/365
f 330/632/361 328/399/137 322/637/366
f 323/503/236 327/633/362 321/638/367
f 321/638/367 327/633/362 326/634/363
f 326/634/363 325/635/364 319/640/369
f 325/635/364 324/636/365 318/641/370
f 324/636/365 322/637/366 316/397/135
f 317/505/238 321/638/367 315/642/371
f 321/638/367 320/639/368 314/643/372
f 320/639/368 319/640/369 313/644/373
f 313/644/373 319/640/369 318/641/370
f 312/645/374 318/641/370 316/397/135
f 305/508/241 311/506/239 315/642/371
f 315/642/371 314/643/372 308/647/376
f 314/643/372 313/644/373 307/648/377
f 313/644/373 312/645/374 306/649/378
f 312/645/374 310/394/132 304/454/189
f 305/508/241 309/646/375 300/511/244
f 309/646/375 308/647/376 301/514/247
f 308/647/376 307/648/377 302/516/249
f 307/648/377 306/649/378 303/518/251
f 303/518/251 306/649/378 304/454/189
f 485/456/191 532/965/409 622/509/242
f 257/650/379 490/766/379 491/651/379
f 599/653/380 622/975/380 532/654/380
f 258/652/379 491/651/379 492/656/379
f 532/654/380 642/661/380 620/658/380
f 260/659/379 259/657/379 492/656/379
f 642/661/380 641/976/380 295/662/380
f 260/659/379 494/660/379 495/663/379
f 295/662/380 641/976/380 640/665/380
f 262/667/379 261/664/379 495/663/379
f 640/665/380 527/977/380 292/669/380
f 262/667/379 497/668/379 498/670/379
f 292/669/380 527/977/380 639/672/380
f 264/671/379 498/670/379 499/674/379
f 639/672/380 524/679/380 618/676/380
f 265/675/379 499/674/379 500/677/379
f 524/679/380 522/978/380 617/680/380
f 267/678/379 500/677/379 502/681/379
f 617/680/380 522/978/380 638/683/380
f 269/682/379 502/681/379 503/685/379
f 638/683/380 637/690/380 615/687/380
f 271/688/379 270/686/379 503/685/379
f 637/690/380 636/979/380 614/691/380
f 271/688/379 504/689/379 506/692/379
f 614/691/380 636/979/380 635/694/380
f 274/696/379 273/693/379 506/692/379
f 635/694/380 634/980/380 612/698/380
f 274/696/379 507/697/379 508/699/379
f 612/698/380 634/980/380 515/701/380
f 276/700/379 508/699/379 509/703/379
f 515/701/380 513/708/380 280/705/380
f 277/704/379 509/703/379 511/706/379
f 513/708/380 633/981/380 610/709/380
f 278/710/379 511/982/379 512/711/379
f 610/713/380 633/983/380 510/714/380
f 279/712/379 512/711/379 514/716/379
f 510/714/380 632/721/380 608/718/380
f 282/719/379 281/717/379 514/716/379
f 632/721/380 631/984/380 275/722/380
f 282/719/379 516/720/379 517/723/379
f 275/722/380 631/984/380 630/725/380
f 284/727/379 283/724/379 517/723/379
f 630/725/380 505/985/380 272/729/380
f 284/727/379 518/728/379 519/730/379
f 272/729/380 505/985/380 629/732/380
f 285/731/379 519/730/379 520/734/379
f 629/732/380 628/739/380 605/736/380
f 286/735/379 520/734/379 521/737/379
f 628/739/380 501/986/380 268/740/380
f 287/738/379 521/737/379 523/741/379
f 268/740/380 501/986/380 627/743/380
f 288/742/379 523/741/379 525/745/379
f 627/743/380 626/750/380 604/747/380
f 291/748/379 289/746/379 525/745/379
f 626/750/380 625/987/380 263/751/380
f 291/748/379 526/749/379 528/752/379
f 263/751/380 625/987/380 496/754/380
f 294/756/379 293/753/379 528/752/379
f 496/754/380 624/988/380 602/758/380
f 294/756/379 529/757/379 530/759/379
f 602/758/380 624/988/380 493/761/380
f 296/760/379 530/759/379 531/763/379
f 493/761/380 623/767/380 600/765/380
f 297/764/379 531/763/379 490/766/379
f 623/767/380 622/975/380 599/653/380
f 262/768/381 572/785/381 571/769/382
f 620/771/188 565/888/188 566/772/187
f 611/774/183 280/890/184 552/775/184
f 603/777/382 539/891/382 540/778/381
f 257/780/383 567/853/383 598/781/187
f 282/782/384 586/793/384 585/783/183
f 264/784/385 573/795/385 572/785/381
f 621/773/187 566/772/187 536/786/383
f 611/774/183 553/776/183 554/788/384
f 604/790/385 263/779/381 540/778/381
f 283/792/386 587/801/386 586/793/384
f 265/794/387 574/803/387 573/795/385
f 612/789/384 554/788/384 555/796/386
f 604/790/385 541/791/385 542/798/387
f 284/800/388 588/809/388 587/801/386
f 267/802/389 575/811/389 574/803/387
f 613/797/386 555/796/386 556/804/388
f 266/799/387 542/798/387 543/806/389
f 285/808/390 589/817/390 588/809/388
f 269/810/391 576/819/391 575/811/389
f 614/805/388 556/804/388 557/812/390
f 605/814/391 268/807/389 543/806/389
f 286/816/392 590/825/392 589/817/390
f 270/818/393 577/827/393 576/819/391
f 615/813/390 557/812/390 558/820/392
f 605/814/391 544/815/391 545/822/393
f 287/824/394 591/833/394 590/825/392
f 271/826/395 578/835/395 577/827/393
f 616/821/392 558/820/392 559/828/394
f 606/823/393 545/822/393 546/830/395
f 288/832/396 592/841/396 591/833/394
f 273/834/397 579/843/397 578/835/395
f 617/829/394 559/828/394 560/836/396
f 607/838/397 272/831/395 546/830/395
f 289/840/398 593/849/398 592/841/396
f 274/842/399 580/851/399 579/843/397
f 618/837/396 560/836/396 561/844/398
f 607/838/397 547/839/397 548/846/399
f 291/848/400 594/861/400 593/849/398
f 276/850/401 581/863/401 580/851/399
f 258/852/402 568/865/402 567/853/383
f 290/845/398 561/844/398 562/854/400
f 608/856/401 275/847/399 548/846/399
f 599/787/383 536/786/383 535/858/402
f 293/860/403 595/873/403 594/861/400
f 277/862/404 582/875/404 581/863/401
f 259/864/405 569/877/405 568/865/402
f 619/866/403 292/855/400 562/854/400
f 608/856/401 549/857/401 550/868/404
f 600/859/402 535/858/402 537/870/405
f 294/872/406 596/884/406 595/873/403
f 278/874/407 583/989/407 582/875/404
f 260/876/408 570/887/408 569/877/405
f 619/866/403 563/867/403 564/878/406
f 610/880/407 609/869/404 550/868/404
f 601/871/405 537/870/405 538/882/408
f 296/453/188 597/452/188 596/884/406
f 279/448/184 584/447/184 583/885/407
f 261/770/382 571/769/382 570/887/408
f 620/771/188 295/879/406 564/878/406
f 610/889/407 551/990/407 552/775/184
f 602/883/408 538/882/408 539/891/382
